<svg id="svg" xmlns="http://www.w3.org/2000/svg" xmlns:xlink="http://www.w3.org/1999/xlink" width="400" height="400" viewBox="0, 0, 400,400" version="1.1"><g id="svgg"><path id="path0" d="M194.860 4.315 C 180.815 17.034,149.904 32.771,131.576 36.533 C 128.859 37.091,123.950 38.355,120.669 39.343 C 117.387 40.330,111.499 41.554,107.585 42.062 C 103.670 42.569,97.944 43.410,94.860 43.929 C 77.488 46.855,24.615 45.041,14.019 41.156 C 12.734 40.685,9.107 40.028,5.960 39.698 L 0.238 39.096 0.655 45.950 C 0.885 49.720,1.496 53.920,2.014 55.283 C 2.532 56.647,2.970 60.222,2.988 63.227 C 3.005 66.233,3.366 69.124,3.789 69.653 C 4.212 70.181,4.967 73.966,5.467 78.064 C 5.967 82.161,6.824 87.196,7.372 89.252 C 7.919 91.308,8.377 94.694,8.389 96.776 C 8.401 98.857,8.792 100.960,9.258 101.449 C 10.034 102.261,11.734 110.309,14.185 124.766 C 14.708 127.850,15.546 131.154,16.048 132.108 C 16.550 133.062,17.531 136.426,18.226 139.584 C 20.031 147.778,23.786 161.982,24.438 163.084 C 24.742 163.598,25.520 166.332,26.167 169.159 C 26.813 171.986,27.899 175.561,28.579 177.103 C 29.706 179.656,30.595 182.273,35.251 196.729 C 36.078 199.299,37.738 203.584,38.938 206.251 C 40.139 208.917,41.121 211.423,41.121 211.820 C 41.121 212.461,42.584 216.049,49.828 233.178 C 52.932 240.518,65.221 264.810,70.083 273.216 C 78.586 287.918,80.636 291.204,87.666 301.402 C 116.838 343.726,153.781 377.953,188.647 394.960 C 199.875 400.436,200.236 400.430,211.946 394.542 C 248.825 376.000,289.479 337.482,317.035 294.974 C 338.988 261.108,371.293 187.566,377.022 158.411 C 377.224 157.383,378.307 153.178,379.429 149.065 C 380.551 144.953,382.491 136.963,383.741 131.308 C 384.990 125.654,386.420 119.766,386.918 118.224 C 387.898 115.192,390.715 100.224,393.479 83.370 C 394.431 77.564,395.626 71.466,396.136 69.818 C 396.645 68.171,397.088 64.930,397.119 62.617 C 397.151 60.304,397.640 56.098,398.206 53.271 C 400.279 42.927,400.392 37.967,398.540 38.678 C 397.634 39.026,393.911 39.750,390.268 40.287 C 386.625 40.825,382.335 41.659,380.733 42.143 C 369.127 45.643,321.703 46.443,302.336 43.464 C 297.196 42.673,290.398 41.633,287.229 41.152 C 284.060 40.672,279.908 39.627,278.003 38.831 C 276.097 38.035,273.610 37.383,272.476 37.383 C 270.000 37.383,253.324 32.016,244.895 28.507 C 230.391 22.467,214.362 12.739,204.905 4.237 C 199.293 -0.809,200.529 -0.819,194.860 4.315 M201.868 52.802 C 202.507 53.572,205.496 55.309,208.511 56.662 C 211.525 58.015,214.470 59.698,215.054 60.402 C 215.639 61.106,216.643 61.682,217.285 61.682 C 218.363 61.682,224.739 64.404,228.037 66.272 C 228.808 66.708,231.752 67.809,234.579 68.718 C 237.407 69.627,240.157 70.707,240.692 71.119 C 241.227 71.530,243.732 72.330,246.257 72.896 C 248.783 73.462,252.130 74.477,253.696 75.152 C 260.274 77.988,289.117 83.821,305.140 85.556 C 307.196 85.779,318.469 86.234,330.191 86.568 C 349.258 87.111,351.442 87.333,350.924 88.681 C 350.606 89.509,349.758 93.551,349.040 97.664 C 347.518 106.380,343.555 123.808,340.965 133.178 C 339.971 136.776,338.168 143.505,336.959 148.131 C 335.750 152.757,333.923 158.855,332.898 161.682 C 330.584 168.066,328.914 173.008,325.634 183.178 C 324.225 187.547,322.042 193.193,320.782 195.726 C 319.523 198.258,317.874 202.464,317.118 205.072 C 315.163 211.810,298.220 246.132,290.556 258.879 C 267.680 296.922,239.703 328.491,213.770 345.525 C 198.258 355.713,200.641 355.379,190.744 348.759 C 167.850 333.445,132.109 297.631,126.514 284.397 C 125.820 282.755,124.701 281.073,124.027 280.659 C 121.984 279.403,118.692 274.131,118.692 272.115 C 118.692 271.056,117.887 269.964,116.867 269.640 C 115.864 269.322,113.918 266.762,112.543 263.952 C 111.168 261.142,109.634 258.590,109.134 258.281 C 108.634 257.972,107.055 255.243,105.624 252.217 C 104.193 249.192,102.605 246.193,102.095 245.554 C 100.060 243.004,91.589 226.145,91.589 224.646 C 91.589 223.765,90.979 222.371,90.234 221.547 C 88.858 220.027,84.201 209.534,81.499 201.869 C 80.684 199.556,79.046 195.583,77.859 193.041 C 76.672 190.498,75.698 187.765,75.695 186.966 C 75.692 186.167,75.107 184.398,74.396 183.034 C 72.880 180.129,71.104 174.934,70.513 171.677 C 70.284 170.413,69.467 168.173,68.698 166.699 C 66.590 162.658,65.967 158.136,67.298 156.532 C 68.575 154.993,67.141 152.336,65.033 152.336 C 63.241 152.336,61.383 144.010,62.795 142.309 C 63.750 141.158,63.595 140.613,61.929 139.264 C 59.145 137.010,57.266 129.513,58.970 127.460 C 60.038 126.173,59.922 125.713,58.175 124.298 C 55.166 121.862,53.645 114.318,55.705 112.042 C 57.382 110.189,56.220 107.477,53.748 107.477 C 53.100 107.477,52.180 105.433,51.672 102.865 L 50.760 98.254 56.480 92.585 C 63.192 85.933,71.022 84.407,74.777 89.019 L 76.489 91.121 79.132 88.671 C 81.823 86.177,94.393 83.938,94.393 85.953 C 94.393 87.892,98.328 87.991,100.337 86.104 C 101.868 84.666,104.850 83.843,112.173 82.839 C 121.586 81.548,138.451 77.815,146.262 75.293 C 167.397 68.468,182.429 61.979,195.327 54.111 C 200.365 51.038,200.398 51.031,201.868 52.802 M52.813 89.710 C 51.341 91.247,50.060 92.403,49.966 92.280 C 47.840 89.485,48.827 86.916,52.026 86.916 L 55.490 86.916 52.813 89.710 " stroke="none" fill="#000000" fill-rule="evenodd"></path></g></svg>