<svg id="svg" xmlns="http://www.w3.org/2000/svg" xmlns:xlink="http://www.w3.org/1999/xlink" width="400" height="320" viewBox="0, 0, 400,320" version="1.1"><g id="svgg"><path id="path0" d="M316.344 2.224 C 316.055 5.154,316.412 8.314,317.060 8.563 C 318.180 8.992,318.720 9.920,318.735 11.440 C 318.754 13.260,319.569 15.081,320.560 15.516 C 321.140 15.771,321.280 16.090,321.280 17.162 C 321.280 18.566,321.604 18.880,323.052 18.880 C 323.773 18.880,323.817 18.998,323.906 21.200 L 324.000 23.520 325.200 23.619 C 326.367 23.716,326.400 23.754,326.400 24.979 C 326.400 26.194,326.439 26.240,327.464 26.240 C 328.427 26.240,328.555 26.353,328.824 27.440 C 329.082 28.486,329.254 28.653,330.160 28.740 C 331.077 28.829,331.200 28.953,331.200 29.790 C 331.200 30.313,331.402 30.818,331.649 30.913 C 332.035 31.060,332.035 31.207,331.651 31.942 C 331.405 32.414,331.203 33.540,331.202 34.444 C 331.200 36.058,331.180 36.093,330.120 36.291 C 329.156 36.472,329.018 36.632,328.836 37.767 C 328.681 38.737,328.487 39.040,328.019 39.040 C 326.888 39.040,326.400 39.916,326.400 41.943 L 326.400 43.840 325.120 43.840 L 323.840 43.840 323.840 45.120 C 323.840 46.326,323.785 46.400,322.891 46.400 C 321.883 46.400,321.280 47.110,321.280 48.299 C 321.280 48.839,321.078 48.960,320.175 48.960 C 319.164 48.960,319.051 49.057,318.859 50.080 L 318.649 51.200 311.164 51.200 L 303.680 51.200 303.680 50.122 C 303.680 48.950,302.960 48.652,300.100 48.644 C 299.004 48.640,298.913 48.566,298.820 47.600 C 298.726 46.624,298.637 46.554,297.360 46.462 C 296.051 46.367,296.000 46.323,296.000 45.296 C 296.000 44.014,295.652 43.840,293.094 43.840 C 291.208 43.840,291.200 43.836,291.200 42.891 C 291.200 41.671,290.467 41.280,288.181 41.280 C 286.509 41.280,286.400 41.233,286.400 40.503 C 286.400 39.178,285.613 38.720,283.337 38.720 L 281.280 38.720 281.280 37.771 C 281.280 36.532,280.546 36.160,278.101 36.160 L 276.160 36.160 276.160 35.040 C 276.160 33.931,276.147 33.920,274.760 33.920 C 272.163 33.920,271.384 33.622,271.099 32.520 C 270.844 31.530,270.819 31.519,268.553 31.426 L 266.264 31.332 266.062 30.256 C 265.814 28.933,265.429 28.810,261.520 28.804 L 258.560 28.800 258.560 27.832 C 258.560 26.522,257.707 26.240,253.750 26.240 C 250.959 26.240,250.544 26.167,250.255 25.629 C 249.478 24.177,247.976 23.680,244.362 23.680 C 241.187 23.680,240.960 23.638,240.960 23.047 C 240.960 21.279,241.090 21.290,217.774 21.169 C 194.104 21.046,189.185 21.193,188.889 22.033 C 188.362 23.526,187.910 23.680,184.030 23.684 C 179.203 23.690,178.880 23.782,178.880 25.157 L 178.880 26.240 175.371 26.240 C 171.610 26.240,171.200 26.425,171.200 28.125 C 171.200 28.706,170.964 28.782,168.880 28.866 L 166.560 28.960 166.461 30.147 L 166.363 31.334 163.901 31.427 L 161.440 31.520 161.342 32.524 C 161.234 33.637,160.539 33.920,157.914 33.920 C 156.520 33.920,156.160 34.245,156.160 35.505 C 156.160 35.970,155.784 36.120,154.163 36.303 C 151.896 36.560,151.360 36.876,151.360 37.959 C 151.360 38.551,151.188 38.720,150.586 38.720 C 149.203 38.720,148.800 39.049,148.800 40.175 C 148.800 41.176,148.727 41.247,147.600 41.341 C 146.465 41.435,146.395 41.505,146.301 42.640 L 146.201 43.840 144.205 43.840 C 141.994 43.840,141.440 44.169,141.440 45.485 C 141.440 46.267,141.310 46.372,140.240 46.461 C 139.137 46.552,139.027 46.651,138.880 47.680 C 138.738 48.676,138.596 48.818,137.600 48.960 C 136.619 49.100,136.468 49.245,136.382 50.128 C 136.298 50.989,136.129 51.165,135.213 51.336 C 134.137 51.538,133.760 52.008,133.760 53.146 C 133.760 53.613,133.533 53.760,132.811 53.760 C 131.809 53.760,131.200 54.470,131.200 55.639 C 131.200 56.128,130.954 56.303,130.160 56.380 C 129.211 56.471,129.111 56.584,129.021 57.680 C 128.932 58.750,128.827 58.880,128.045 58.880 C 126.926 58.880,126.400 59.412,126.400 60.544 C 126.400 61.324,126.277 61.440,125.451 61.440 C 124.438 61.440,123.840 62.151,123.840 63.356 C 123.840 63.811,123.545 64.136,122.941 64.347 C 121.949 64.692,121.280 66.078,121.280 67.783 C 121.280 68.726,121.201 68.800,120.194 68.800 C 119.052 68.800,118.720 69.197,118.720 70.566 C 118.720 71.182,118.531 71.338,117.680 71.420 C 116.643 71.520,116.639 71.526,116.358 73.823 C 116.079 76.097,116.063 76.127,115.078 76.223 C 114.177 76.311,114.070 76.436,113.981 77.520 C 113.896 78.539,113.768 78.720,113.127 78.720 C 111.512 78.720,111.360 78.956,111.360 81.455 L 111.360 83.801 110.160 83.901 C 109.025 83.995,108.955 84.065,108.861 85.200 C 108.777 86.213,108.646 86.400,108.020 86.400 C 106.936 86.400,106.523 87.099,106.326 89.268 C 106.184 90.841,106.045 91.200,105.582 91.200 C 104.457 91.200,103.993 91.609,103.808 92.766 C 103.674 93.607,103.365 94.089,102.725 94.456 C 101.834 94.968,101.392 96.512,101.047 100.320 C 100.972 101.147,100.816 101.294,99.920 101.380 C 98.940 101.475,98.880 101.553,98.880 102.740 C 98.880 103.923,98.822 104.000,97.931 104.000 C 96.710 104.000,96.320 104.733,96.320 107.027 C 96.320 108.750,96.285 108.823,95.380 109.004 C 94.285 109.223,94.126 109.543,93.864 112.054 C 93.741 113.226,93.521 113.920,93.270 113.920 C 92.207 113.920,91.515 115.049,91.308 117.120 C 91.160 118.609,90.911 119.392,90.431 119.875 C 89.198 121.116,88.640 122.043,88.633 122.865 C 88.628 123.468,88.357 123.805,87.593 124.160 C 86.562 124.639,86.560 124.645,86.466 127.335 C 86.368 130.162,86.191 130.521,84.560 131.203 C 83.905 131.477,83.840 131.719,83.840 133.872 L 83.840 136.240 82.875 136.433 C 81.605 136.687,81.280 137.606,81.280 140.945 L 81.280 143.609 80.191 143.813 C 78.894 144.056,78.720 144.422,78.720 146.900 C 78.720 148.638,78.658 148.803,77.933 148.985 C 76.680 149.300,76.462 149.832,76.224 153.169 L 76.000 156.315 75.040 156.480 L 74.080 156.644 73.918 159.556 C 73.748 162.610,73.431 163.357,72.093 163.865 C 71.390 164.133,71.360 164.289,71.360 167.672 C 71.360 171.190,71.358 171.200,70.586 171.200 C 68.953 171.200,68.800 171.432,68.800 173.908 L 68.800 176.227 67.764 176.525 C 66.571 176.867,66.290 177.792,66.258 181.486 C 66.239 183.686,66.039 184.000,64.656 184.000 C 63.957 184.000,63.689 185.340,63.684 188.860 L 63.680 191.319 62.640 191.420 L 61.600 191.520 61.311 195.103 L 61.022 198.687 60.031 198.783 C 59.116 198.873,59.033 198.982,58.943 200.210 C 58.862 201.325,58.717 201.572,58.042 201.741 C 57.103 201.977,56.320 203.572,56.320 205.250 C 56.320 206.303,56.257 206.367,55.120 206.461 C 54.017 206.552,53.907 206.651,53.760 207.680 C 53.619 208.667,53.478 208.812,52.571 208.899 C 51.686 208.985,51.514 209.149,51.341 210.069 C 51.171 210.976,50.973 211.171,50.050 211.345 C 49.064 211.529,48.960 211.653,48.960 212.635 C 48.960 213.659,48.891 213.727,47.760 213.821 C 46.625 213.915,46.555 213.985,46.461 215.120 C 46.364 216.287,46.326 216.320,45.101 216.320 C 43.843 216.320,43.840 216.323,43.840 217.600 C 43.840 218.853,43.816 218.880,42.704 218.880 C 41.221 218.880,39.728 219.671,39.354 220.655 C 39.108 221.304,38.838 221.440,37.804 221.440 C 36.638 221.440,36.537 221.514,36.352 222.504 C 36.159 223.533,36.084 223.579,34.156 223.864 C 32.334 224.134,32.121 224.249,31.709 225.184 C 31.339 226.024,31.053 226.225,30.109 226.304 C 29.032 226.394,28.954 226.476,28.861 227.600 L 28.761 228.800 26.781 228.805 C 24.431 228.811,24.151 228.956,23.855 230.320 C 23.630 231.358,23.625 231.360,21.639 231.360 C 19.432 231.360,18.880 231.690,18.880 233.010 C 18.880 233.882,18.855 233.893,16.571 233.986 C 14.268 234.080,14.261 234.083,13.965 235.120 C 13.741 235.901,13.486 236.160,12.940 236.160 C 11.603 236.160,11.200 236.498,11.200 237.620 L 11.200 238.692 8.880 238.786 L 6.560 238.880 6.461 240.080 L 6.361 241.280 4.205 241.280 C 1.818 241.280,1.280 241.586,1.280 242.944 C 1.280 243.627,1.128 243.840,0.640 243.840 C 0.037 243.840,-0.000 244.053,-0.000 247.526 L -0.000 251.211 7.920 251.126 L 15.840 251.040 16.134 249.850 L 16.428 248.660 19.974 248.570 L 23.520 248.480 23.620 247.440 L 23.721 246.400 25.876 246.400 C 28.242 246.400,28.800 246.092,28.800 244.783 L 28.800 243.933 32.012 243.756 C 35.426 243.568,36.160 243.265,36.160 242.041 C 36.160 241.343,36.290 241.280,37.739 241.280 C 39.979 241.280,40.859 240.868,41.116 239.699 C 41.328 238.733,41.358 238.720,43.346 238.720 C 45.495 238.720,45.851 238.511,46.202 237.040 C 46.390 236.253,46.555 236.160,47.766 236.155 C 49.504 236.149,50.643 235.565,50.879 234.557 C 51.036 233.886,51.278 233.745,52.413 233.662 C 53.716 233.566,53.760 233.527,53.760 232.462 L 53.760 231.360 55.440 231.356 C 58.006 231.349,58.515 231.125,58.744 229.903 C 58.915 228.992,59.092 228.821,59.952 228.738 C 60.863 228.649,60.970 228.525,61.059 227.453 L 61.157 226.266 63.619 226.173 L 66.080 226.080 66.178 224.898 C 66.271 223.788,66.348 223.711,67.458 223.618 C 68.569 223.526,68.646 223.449,68.738 222.338 C 68.831 221.228,68.908 221.151,70.018 221.058 C 71.088 220.969,71.209 220.864,71.299 219.939 C 71.385 219.050,71.530 218.905,72.419 218.819 C 73.344 218.729,73.449 218.608,73.538 217.538 C 73.631 216.428,73.708 216.351,74.818 216.258 C 75.929 216.166,76.006 216.089,76.098 214.978 C 76.191 213.868,76.268 213.791,77.378 213.698 C 78.489 213.606,78.566 213.529,78.658 212.418 C 78.750 211.308,78.828 211.230,79.936 211.138 C 80.780 211.068,81.146 210.873,81.226 210.451 C 81.370 209.694,82.334 208.730,83.091 208.586 C 83.491 208.511,83.712 208.142,83.780 207.437 C 83.862 206.588,84.018 206.400,84.637 206.400 C 85.665 206.400,86.400 205.589,86.400 204.457 C 86.400 203.742,86.548 203.520,87.022 203.520 C 88.001 203.520,88.640 202.289,88.640 200.401 C 88.640 198.762,88.674 198.697,89.625 198.507 C 90.800 198.272,91.200 197.427,91.200 195.179 C 91.200 193.756,91.271 193.600,91.920 193.595 C 93.199 193.586,93.500 193.128,93.678 190.918 C 93.842 188.864,93.880 188.787,94.844 188.537 C 95.930 188.256,96.212 187.571,96.282 185.040 C 96.316 183.832,96.405 183.680,97.081 183.680 C 98.193 183.680,98.554 183.044,98.773 180.693 C 98.953 178.772,99.044 178.565,99.838 178.289 C 100.774 177.962,101.120 176.989,101.120 174.680 C 101.120 173.588,101.211 173.440,101.881 173.440 C 102.981 173.440,103.396 172.752,103.591 170.606 C 103.753 168.813,103.817 168.693,104.760 168.423 C 105.847 168.111,106.132 167.409,106.202 164.872 C 106.234 163.729,106.370 163.455,107.031 163.203 C 108.043 162.819,108.800 161.021,108.800 159.001 C 108.800 157.355,109.442 156.329,110.611 156.106 C 111.107 156.011,111.215 155.630,111.294 153.696 L 111.387 151.399 112.414 151.299 L 113.440 151.200 113.533 148.739 L 113.626 146.277 114.813 146.179 L 116.000 146.080 116.093 143.619 L 116.186 141.157 117.373 141.059 L 118.560 140.960 118.654 138.640 C 118.738 136.556,118.814 136.320,119.395 136.320 C 120.938 136.320,121.280 135.796,121.280 133.429 L 121.280 131.200 122.366 131.200 C 123.537 131.200,123.840 130.808,123.840 129.292 C 123.840 128.681,124.246 127.979,125.120 127.078 C 126.173 125.994,126.400 125.536,126.400 124.501 C 126.400 123.522,126.543 123.198,127.044 123.039 C 127.915 122.762,128.640 121.262,128.640 119.736 C 128.640 118.602,128.731 118.462,129.582 118.292 C 130.603 118.087,131.195 116.751,131.198 114.640 C 131.200 113.701,131.292 113.600,132.149 113.600 C 133.369 113.600,133.760 112.867,133.760 110.581 C 133.760 108.844,133.782 108.800,134.656 108.800 C 135.149 108.800,135.725 108.627,135.936 108.416 C 136.235 108.117,136.320 108.597,136.322 110.576 C 136.324 114.136,136.746 115.493,137.922 115.728 C 138.741 115.892,138.858 116.064,138.943 117.237 C 139.033 118.465,139.113 118.567,140.055 118.658 C 140.963 118.746,141.092 118.889,141.283 120.018 C 141.483 121.199,141.566 121.280,142.588 121.280 C 143.571 121.280,143.680 121.370,143.680 122.176 C 143.680 123.313,144.207 123.840,145.344 123.840 C 146.058 123.840,146.241 123.986,146.245 124.560 C 146.256 126.181,146.446 126.233,152.769 126.345 L 158.683 126.450 158.782 127.465 C 158.871 128.386,158.991 128.489,160.080 128.579 C 161.277 128.678,161.280 128.683,161.312 130.179 C 161.365 132.668,161.645 133.266,162.813 133.380 L 163.840 133.481 163.840 137.441 L 163.840 141.401 162.640 141.501 L 161.440 141.600 161.348 144.208 C 161.262 146.611,161.198 146.831,160.534 146.998 C 159.471 147.265,158.720 149.247,158.720 151.788 C 158.720 153.820,158.684 153.920,157.959 153.920 C 156.751 153.920,156.470 154.601,156.260 158.046 C 156.089 160.850,155.988 161.280,155.498 161.280 C 154.089 161.280,153.920 161.576,153.920 164.034 L 153.920 166.400 153.024 166.400 C 151.664 166.400,151.360 166.937,151.360 169.344 C 151.360 171.422,151.326 171.520,150.599 171.520 C 149.495 171.520,149.084 172.209,148.886 174.388 C 148.733 176.083,148.628 176.321,148.036 176.325 C 146.778 176.334,146.485 176.808,146.321 179.108 C 146.166 181.270,146.135 181.338,145.161 181.625 C 144.211 181.905,144.145 182.031,143.869 184.087 C 143.605 186.047,143.498 186.273,142.749 186.456 C 141.714 186.709,141.451 187.093,141.445 188.360 C 141.434 190.620,141.114 191.318,140.044 191.422 C 139.136 191.511,139.031 191.635,138.941 192.719 C 138.861 193.676,138.687 193.956,138.074 194.110 C 136.947 194.393,136.619 194.951,136.414 196.938 C 136.250 198.528,136.152 198.720,135.498 198.720 C 134.552 198.720,133.760 199.523,133.760 200.483 C 133.760 201.103,133.572 201.258,132.720 201.340 C 131.814 201.427,131.642 201.594,131.384 202.640 C 131.130 203.666,130.959 203.840,130.202 203.840 C 129.070 203.840,129.014 203.952,128.760 206.680 C 128.584 208.576,128.452 208.960,127.977 208.960 C 126.545 208.960,126.400 209.610,126.400 216.044 C 126.400 222.408,126.541 223.165,127.782 223.477 C 128.524 223.663,128.546 223.770,128.734 228.181 C 128.938 232.939,129.146 233.600,130.439 233.600 C 131.192 233.600,131.200 233.637,131.200 236.937 C 131.200 240.573,131.490 241.280,132.983 241.280 C 133.759 241.280,133.760 241.287,133.778 244.880 C 133.800 249.262,134.196 250.678,135.440 250.821 L 136.320 250.923 136.320 267.335 L 136.320 283.747 135.287 284.044 C 133.956 284.426,133.674 285.771,133.858 290.880 C 134.013 295.161,134.162 295.648,135.400 295.896 L 136.320 296.080 136.320 308.040 L 136.320 320.000 140.000 320.000 C 143.428 320.000,143.680 319.958,143.680 319.379 C 143.680 318.893,143.940 318.737,144.880 318.659 L 146.080 318.560 146.248 316.000 C 146.362 314.266,146.465 313.798,146.568 314.550 C 146.695 315.475,146.893 315.709,147.760 315.956 C 148.781 316.247,148.800 316.286,148.800 318.126 L 148.800 320.000 152.480 320.000 C 155.947 320.000,156.160 319.963,156.160 319.360 C 156.160 318.896,156.373 318.720,156.937 318.720 C 158.430 318.720,158.720 318.013,158.720 314.377 C 158.720 311.077,158.728 311.040,159.481 311.040 C 160.869 311.040,161.100 310.316,161.231 305.554 C 161.351 301.172,161.363 301.111,162.125 300.920 C 163.429 300.593,163.633 299.701,163.780 293.680 C 163.857 290.556,164.045 288.000,164.198 288.000 C 164.351 288.000,164.909 287.402,165.438 286.672 L 166.400 285.344 166.400 271.477 C 166.400 256.117,166.277 254.861,164.720 254.272 L 163.840 253.940 163.822 249.130 C 163.797 242.655,163.640 241.843,162.335 241.458 L 161.313 241.157 161.216 233.780 C 161.086 223.813,161.100 223.680,162.280 223.680 C 163.414 223.680,163.840 222.800,163.840 220.459 C 163.840 218.943,163.876 218.880,164.736 218.880 C 165.914 218.880,166.400 218.348,166.400 217.056 C 166.400 216.105,166.492 216.000,167.326 216.000 C 168.449 216.000,168.640 215.580,168.640 213.113 L 168.640 211.239 169.840 211.139 C 170.999 211.043,171.043 210.995,171.137 209.717 C 171.222 208.544,171.339 208.372,172.158 208.208 C 173.135 208.013,173.754 206.663,173.758 204.720 C 173.760 204.002,173.903 203.840,174.537 203.840 C 175.858 203.840,176.320 203.052,176.320 200.796 L 176.320 198.759 177.520 198.659 C 178.655 198.565,178.725 198.495,178.819 197.360 C 178.913 196.225,178.978 196.160,180.019 196.160 C 181.090 196.160,181.120 196.125,181.120 194.880 C 181.120 193.691,181.184 193.600,182.016 193.600 C 183.351 193.600,183.680 193.054,183.680 190.835 L 183.680 188.839 184.880 188.739 C 186.015 188.645,186.085 188.575,186.179 187.440 C 186.273 186.313,186.344 186.240,187.345 186.240 C 188.471 186.240,188.800 185.837,188.800 184.454 C 188.800 183.809,188.959 183.680,189.749 183.680 C 190.751 183.680,191.360 182.970,191.360 181.801 C 191.360 181.312,191.606 181.137,192.400 181.060 C 193.349 180.969,193.449 180.856,193.539 179.760 C 193.628 178.690,193.733 178.560,194.515 178.560 C 195.574 178.560,196.160 178.036,196.160 177.090 C 196.160 176.376,196.709 176.000,197.752 176.000 C 198.355 176.000,198.720 175.400,198.720 174.409 C 198.720 174.005,199.047 173.770,199.806 173.628 C 200.735 173.453,200.922 173.263,201.100 172.312 C 201.268 171.420,201.457 171.200,202.055 171.200 C 202.940 171.200,203.418 170.695,203.569 169.600 C 203.657 168.963,203.904 168.767,204.781 168.640 C 205.682 168.509,205.927 168.304,206.132 167.509 C 206.320 166.781,206.646 166.460,207.431 166.229 C 208.302 165.972,208.497 165.744,208.580 164.880 C 208.657 164.086,208.832 163.840,209.321 163.840 C 210.490 163.840,211.200 163.231,211.200 162.229 C 211.200 161.403,211.316 161.280,212.096 161.280 C 213.233 161.280,213.760 160.753,213.760 159.616 C 213.760 158.836,213.883 158.720,214.709 158.720 C 215.717 158.720,216.320 158.010,216.320 156.821 C 216.320 156.283,216.522 156.160,217.406 156.160 C 218.553 156.160,218.880 155.763,218.880 154.374 C 218.880 153.703,219.029 153.600,220.000 153.600 C 221.067 153.600,221.120 153.547,221.120 152.480 C 221.120 151.561,221.239 151.360,221.781 151.360 C 222.952 151.360,223.680 150.756,223.680 149.783 C 223.680 148.857,224.146 148.480,225.292 148.480 C 225.720 148.480,225.949 148.169,226.095 147.390 C 226.268 146.472,226.466 146.269,227.349 146.103 C 228.478 145.891,228.788 145.084,228.796 142.339 C 228.800 141.207,228.849 141.155,230.000 141.059 C 231.096 140.969,231.209 140.869,231.300 139.920 C 231.374 139.157,231.558 138.880,231.994 138.880 C 233.245 138.880,233.600 138.519,233.600 137.246 C 233.600 136.073,233.656 136.000,234.568 136.000 C 235.737 136.000,236.160 135.144,236.160 132.779 C 236.160 131.263,236.196 131.200,237.056 131.200 C 238.393 131.200,238.720 130.655,238.720 128.425 C 238.720 126.432,238.727 126.416,239.753 126.151 C 240.541 125.946,240.856 125.640,241.080 124.861 L 241.373 123.840 259.326 123.836 C 269.201 123.833,277.582 123.750,277.952 123.651 C 278.577 123.483,278.637 123.631,278.817 125.788 C 279.018 128.186,279.288 128.626,280.560 128.635 L 281.280 128.640 281.280 139.963 L 281.280 151.285 279.178 151.419 C 276.970 151.560,276.494 151.875,276.485 153.200 C 276.480 153.876,276.346 153.920,274.304 153.920 C 271.996 153.920,271.360 154.233,271.360 155.370 C 271.360 155.975,271.101 156.084,269.049 156.346 C 266.743 156.639,266.737 156.643,266.472 157.776 C 266.276 158.616,265.964 159.004,265.278 159.263 C 264.696 159.483,264.271 159.925,264.140 160.447 C 263.990 161.044,263.721 161.280,263.191 161.280 C 261.504 161.280,261.440 161.422,261.440 165.154 C 261.440 168.281,261.499 168.640,262.009 168.640 C 262.666 168.640,263.570 169.589,263.734 170.449 C 263.820 170.905,264.186 171.062,265.337 171.136 C 266.476 171.210,266.942 171.407,267.310 171.969 C 268.883 174.369,276.848 174.429,278.017 172.049 C 278.389 171.294,278.619 171.199,280.097 171.195 C 282.222 171.189,283.330 170.640,283.460 169.530 C 283.548 168.774,283.714 168.664,284.900 168.577 C 286.154 168.486,286.246 168.413,286.340 167.440 C 286.432 166.488,286.533 166.400,287.540 166.400 C 288.610 166.400,288.640 166.365,288.640 165.120 L 288.640 163.840 289.920 163.840 C 291.039 163.840,291.200 163.748,291.200 163.111 C 291.200 162.252,292.221 161.280,293.124 161.280 C 293.474 161.280,293.760 161.170,293.760 161.036 C 293.760 160.902,294.075 160.650,294.461 160.476 C 295.390 160.057,296.268 158.491,296.297 157.200 C 296.316 156.325,296.441 156.160,297.081 156.160 C 298.330 156.160,298.648 155.400,298.811 152.016 L 298.963 148.856 300.041 148.653 L 301.120 148.451 301.120 145.767 C 301.120 143.357,301.186 143.062,301.765 142.878 C 303.179 142.430,303.680 140.556,303.680 135.712 L 303.680 131.239 304.880 131.139 L 306.080 131.040 306.174 128.720 C 306.263 126.515,306.306 126.400,307.031 126.400 C 308.055 126.400,308.800 125.595,308.800 124.488 C 308.800 123.784,308.999 123.513,309.698 123.270 C 310.633 122.944,311.360 121.332,311.360 119.583 C 311.360 118.889,311.522 118.745,312.400 118.660 C 313.349 118.569,313.449 118.456,313.539 117.360 L 313.639 116.160 315.139 116.155 C 317.123 116.149,318.213 115.576,318.341 114.473 C 318.435 113.669,318.555 113.600,319.861 113.600 C 321.027 113.600,321.280 113.495,321.280 113.010 C 321.280 111.983,322.322 111.360,324.041 111.360 C 325.839 111.360,326.400 110.974,326.400 109.738 C 326.400 108.963,326.534 108.868,327.835 108.721 C 329.572 108.526,330.880 107.731,330.880 106.873 C 330.880 106.370,331.097 106.240,331.936 106.240 C 333.228 106.240,333.760 105.754,333.760 104.576 C 333.760 103.796,333.883 103.680,334.709 103.680 C 335.711 103.680,336.320 102.970,336.320 101.801 C 336.320 101.314,336.566 101.137,337.350 101.060 C 338.194 100.978,338.431 100.779,338.666 99.956 C 338.877 99.214,339.214 98.877,339.956 98.666 C 340.779 98.431,340.978 98.194,341.060 97.350 C 341.137 96.566,341.314 96.320,341.801 96.320 C 342.970 96.320,343.680 95.711,343.680 94.709 C 343.680 93.963,343.822 93.760,344.341 93.760 C 345.896 93.760,346.240 93.239,346.240 90.888 L 346.240 88.679 347.440 88.579 C 348.536 88.489,348.649 88.389,348.740 87.440 C 348.827 86.544,348.962 86.400,349.716 86.400 C 350.870 86.400,351.360 85.862,351.360 84.596 C 351.360 83.662,351.462 83.551,352.400 83.460 L 353.440 83.360 353.534 81.040 L 353.628 78.720 354.894 78.720 C 356.158 78.720,356.160 78.718,356.160 77.440 C 356.160 76.234,356.215 76.160,357.109 76.160 C 358.329 76.160,358.720 75.427,358.720 73.141 L 358.720 71.360 360.400 71.356 C 362.975 71.349,363.475 71.127,363.708 69.885 L 363.911 68.800 365.769 68.800 C 368.298 68.800,368.640 68.624,368.640 67.326 L 368.640 66.240 372.640 66.240 C 376.411 66.240,376.640 66.276,376.640 66.873 C 376.640 68.365,377.867 68.632,385.230 68.743 C 393.470 68.867,393.600 68.846,393.600 67.354 L 393.600 66.240 395.179 66.240 C 397.419 66.240,398.299 65.828,398.556 64.659 C 398.705 63.981,398.960 63.680,399.385 63.680 C 399.974 63.680,400.000 63.365,400.000 56.320 L 400.000 48.960 399.200 48.960 C 398.731 48.960,398.400 48.776,398.400 48.515 C 398.400 47.444,397.294 46.691,395.440 46.500 L 393.600 46.310 393.600 45.075 C 393.600 43.877,393.567 43.840,392.480 43.840 C 391.561 43.840,391.360 43.721,391.360 43.179 C 391.360 41.998,390.757 41.280,389.763 41.280 C 388.954 41.280,388.802 41.134,388.625 40.190 C 388.452 39.273,388.254 39.069,387.375 38.904 C 386.541 38.747,386.269 38.498,386.034 37.674 C 385.791 36.819,385.561 36.623,384.710 36.540 C 383.825 36.454,383.680 36.316,383.680 35.564 C 383.680 34.452,383.148 33.920,382.036 33.920 C 381.282 33.920,381.147 33.776,381.060 32.880 C 380.978 32.022,380.781 31.787,379.937 31.539 C 379.124 31.299,378.860 31.005,378.646 30.099 C 378.414 29.113,378.228 28.938,377.269 28.800 C 376.339 28.666,376.143 28.495,376.057 27.743 C 375.930 26.639,375.019 26.240,372.620 26.240 C 371.024 26.240,370.772 26.134,369.562 24.960 C 368.561 23.989,367.987 23.680,367.182 23.680 C 366.218 23.680,366.111 23.584,366.020 22.640 C 365.932 21.726,365.794 21.588,364.880 21.500 C 363.253 21.343,363.290 19.054,364.925 18.748 C 366.258 18.498,366.390 18.088,366.396 14.180 L 366.400 11.241 367.440 11.140 L 368.480 11.040 368.568 5.520 L 368.655 -0.000 362.568 -0.000 C 356.756 -0.000,356.480 0.028,356.480 0.621 C 356.480 1.107,356.220 1.263,355.280 1.341 C 354.145 1.435,354.075 1.505,353.981 2.640 C 353.884 3.807,353.846 3.840,352.621 3.840 C 351.363 3.840,351.360 3.843,351.360 5.120 L 351.360 6.400 350.080 6.400 C 348.832 6.400,348.800 6.428,348.800 7.514 C 348.800 8.469,348.675 8.655,347.920 8.821 C 347.436 8.927,346.860 9.069,346.640 9.137 C 346.370 9.220,346.240 9.989,346.240 11.510 L 346.240 13.760 344.979 13.760 C 343.754 13.760,343.716 13.727,343.619 12.560 C 343.525 11.425,343.455 11.355,342.320 11.261 C 341.193 11.167,341.120 11.096,341.120 10.095 C 341.120 9.011,340.711 8.640,339.514 8.640 C 339.078 8.640,338.894 8.363,338.820 7.600 C 338.729 6.651,338.616 6.551,337.520 6.461 C 336.501 6.376,336.320 6.248,336.320 5.607 C 336.320 4.237,335.988 3.840,334.846 3.840 C 333.962 3.840,333.760 3.717,333.760 3.179 C 333.760 1.621,333.241 1.280,330.869 1.280 C 328.853 1.280,328.640 1.219,328.640 0.640 C 328.640 0.023,328.427 0.000,322.601 0.000 L 316.563 0.000 316.344 2.224 " stroke="none" fill="#040404" fill-rule="evenodd"></path><path id="path1" d="" stroke="none" fill="#080404" fill-rule="evenodd"></path><path id="path2" d="" stroke="none" fill="#080404" fill-rule="evenodd"></path><path id="path3" d="" stroke="none" fill="#080404" fill-rule="evenodd"></path><path id="path4" d="" stroke="none" fill="#080404" fill-rule="evenodd"></path></g></svg>