<svg id="svg" xmlns="http://www.w3.org/2000/svg" xmlns:xlink="http://www.w3.org/1999/xlink" width="400" height="466.6666666666667" viewBox="0, 0, 400,466.6666666666667" version="1.1"><g id="svgg"><path id="path0" d="M128.400 0.776 C 128.400 1.384,128.075 1.579,126.900 1.676 C 125.446 1.796,125.396 1.852,125.278 3.484 L 125.156 5.168 121.878 5.284 L 118.600 5.400 118.476 6.900 C 118.355 8.358,118.308 8.400,116.776 8.400 C 115.204 8.400,115.200 8.404,115.200 10.000 L 115.200 11.600 111.824 11.600 L 108.448 11.600 108.324 10.100 L 108.200 8.600 104.900 8.484 L 101.600 8.368 101.600 6.784 L 101.600 5.200 87.280 5.200 C 71.896 5.200,72.000 5.186,72.000 7.280 C 72.000 8.341,71.905 8.400,70.200 8.400 L 68.400 8.400 68.400 9.938 L 68.400 11.476 65.300 11.838 L 62.200 12.200 62.076 13.700 C 61.959 15.115,61.875 15.200,60.590 15.200 C 59.103 15.200,58.400 16.011,58.400 17.724 C 58.400 18.480,58.140 18.752,57.246 18.931 C 55.925 19.195,55.200 20.728,55.200 23.260 L 55.200 24.800 53.432 24.800 C 51.794 24.800,51.644 24.712,51.401 23.605 C 51.040 21.959,50.991 21.945,45.591 21.926 C 40.467 21.908,38.800 22.406,38.800 23.958 C 38.800 24.624,38.288 24.726,33.600 24.985 L 28.400 25.273 28.400 26.836 L 28.400 28.400 25.243 28.400 C 21.876 28.400,21.600 28.567,21.600 30.609 C 21.600 31.410,21.374 31.570,20.100 31.676 C 18.707 31.791,18.591 31.900,18.467 33.197 C 18.317 34.778,17.876 35.185,16.300 35.194 C 15.287 35.200,15.200 35.325,15.200 36.777 C 15.200 38.346,15.192 38.355,13.500 38.477 C 11.859 38.596,11.796 38.651,11.678 40.060 C 11.569 41.372,11.418 41.545,10.181 41.777 C 8.385 42.114,8.349 42.309,8.486 51.000 L 8.600 58.200 15.100 58.310 L 21.600 58.420 21.600 56.610 L 21.600 54.800 23.200 54.800 L 24.800 54.800 24.800 53.200 C 24.800 51.723,24.884 51.600,25.900 51.594 C 27.465 51.585,27.889 51.200,28.208 49.499 C 28.434 48.291,28.665 48.000,29.396 48.000 C 30.463 48.000,31.033 47.406,31.411 45.898 C 31.653 44.936,31.880 44.800,33.243 44.800 C 34.793 44.800,34.800 44.793,34.800 43.200 L 34.800 41.600 49.320 41.600 C 65.967 41.600,64.800 41.893,64.800 37.720 L 64.800 34.800 66.600 34.800 L 68.400 34.800 68.400 33.200 L 68.400 31.600 70.000 31.600 C 71.596 31.600,71.600 31.596,71.600 30.024 C 71.600 28.492,71.642 28.445,73.100 28.324 C 74.556 28.204,74.604 28.150,74.723 26.500 L 74.846 24.800 77.743 24.800 C 80.937 24.800,81.600 24.443,81.600 22.720 L 81.600 21.600 88.400 21.600 L 95.200 21.600 95.200 23.200 L 95.200 24.800 98.400 24.800 L 101.600 24.800 101.600 26.357 C 101.600 28.046,102.022 28.400,104.033 28.400 C 105.093 28.400,105.200 28.524,105.200 29.757 C 105.200 31.552,105.388 31.600,112.433 31.600 L 118.400 31.600 118.400 30.000 L 118.400 28.400 120.000 28.400 L 121.600 28.400 121.600 26.600 C 121.600 24.836,121.626 24.800,122.900 24.798 C 125.408 24.793,127.097 24.071,127.535 22.816 C 127.888 21.802,128.168 21.633,129.671 21.524 C 131.341 21.404,131.404 21.351,131.521 19.958 L 131.641 18.517 136.214 18.292 C 138.729 18.168,143.210 18.168,146.173 18.292 L 151.559 18.518 151.679 19.959 C 151.795 21.346,151.864 21.405,153.500 21.523 C 154.987 21.631,155.200 21.765,155.200 22.594 C 155.200 24.223,156.196 24.800,159.006 24.800 L 161.554 24.800 161.677 26.500 C 161.799 28.192,161.808 28.201,163.500 28.323 C 165.192 28.445,165.200 28.454,165.200 30.023 C 165.200 31.596,165.204 31.600,166.800 31.600 L 168.400 31.600 168.400 33.200 L 168.400 34.800 175.374 34.800 C 183.243 34.800,184.206 34.594,184.595 32.824 L 184.864 31.600 191.608 31.600 L 198.352 31.600 198.476 33.100 C 198.592 34.508,198.689 34.607,200.049 34.721 L 201.498 34.842 201.691 37.862 C 201.899 41.102,202.210 41.583,204.100 41.594 C 205.116 41.600,205.200 41.723,205.200 43.200 L 205.200 44.800 211.557 44.800 C 218.428 44.800,218.400 44.809,218.400 42.558 L 218.400 41.581 225.100 41.690 L 231.800 41.800 231.936 42.999 C 232.117 44.593,232.524 44.787,235.700 44.794 L 238.400 44.800 238.400 46.357 C 238.400 48.004,238.833 48.400,240.633 48.400 C 241.389 48.400,241.600 48.611,241.600 49.367 C 241.600 51.167,241.996 51.600,243.643 51.600 L 245.200 51.600 245.200 53.956 C 245.200 58.018,245.481 58.172,253.170 58.342 C 256.712 58.420,260.058 58.372,260.605 58.234 L 261.600 57.985 261.600 51.592 L 261.600 45.200 260.633 45.200 C 258.681 45.200,258.400 44.856,258.395 42.457 C 258.386 38.846,258.161 38.400,256.353 38.400 C 254.808 38.400,254.800 38.392,254.800 36.800 C 254.800 35.323,254.716 35.200,253.700 35.194 C 252.124 35.185,251.683 34.778,251.533 33.197 C 251.412 31.924,251.276 31.788,250.003 31.667 C 248.487 31.524,248.016 31.069,248.006 29.743 C 247.998 28.640,247.313 28.400,244.167 28.400 C 241.606 28.400,241.600 28.397,241.600 27.249 C 241.600 25.143,241.446 25.119,227.629 25.093 L 214.840 25.068 214.720 23.434 C 214.604 21.859,214.545 21.795,213.100 21.676 C 211.642 21.555,211.600 21.508,211.600 19.976 C 211.600 18.416,211.584 18.400,210.071 18.400 C 208.636 18.400,208.518 18.307,208.171 16.900 L 207.800 15.400 202.600 15.085 C 199.740 14.911,192.180 14.872,185.800 14.998 C 171.775 15.274,171.600 15.252,171.600 13.150 C 171.600 11.612,171.588 11.600,170.024 11.600 C 168.492 11.600,168.445 11.558,168.324 10.100 C 168.204 8.644,168.150 8.596,166.500 8.477 C 164.808 8.355,164.800 8.346,164.800 6.777 L 164.800 5.200 161.623 5.200 L 158.446 5.200 158.323 3.500 C 158.201 1.808,158.192 1.799,156.500 1.677 C 155.126 1.578,154.800 1.405,154.800 0.777 C 154.800 0.023,154.403 0.000,141.600 0.000 C 128.804 0.000,128.400 0.024,128.400 0.776 M6.457 61.891 C 5.518 62.007,4.587 62.600,3.357 63.865 L 1.600 65.673 1.600 139.037 C 1.600 212.133,1.597 212.400,0.800 212.400 C 0.002 212.400,0.000 212.667,0.000 335.200 C 0.000 456.522,0.009 458.000,0.777 458.000 C 1.405 458.000,1.578 458.326,1.677 459.700 C 1.799 461.388,1.812 461.401,3.477 461.522 C 5.096 461.640,5.159 461.695,5.277 463.122 C 5.393 464.515,5.486 464.607,6.900 464.724 C 8.075 464.821,8.400 465.016,8.400 465.624 C 8.400 466.390,9.980 466.400,135.000 466.400 C 260.020 466.400,261.600 466.390,261.600 465.624 C 261.600 465.016,261.925 464.821,263.100 464.724 C 264.514 464.607,264.607 464.515,264.723 463.122 C 264.841 461.695,264.904 461.640,266.523 461.522 C 268.188 461.401,268.201 461.388,268.323 459.700 C 268.445 458.008,268.454 458.000,270.023 458.000 L 271.600 458.000 271.598 396.500 C 271.595 330.827,271.640 332.268,269.595 331.859 C 268.265 331.593,267.985 330.586,269.139 330.219 C 270.971 329.638,271.028 326.054,269.235 324.130 C 268.471 323.310,268.454 322.064,268.325 259.547 C 268.178 188.728,268.387 194.052,265.708 192.831 L 264.807 192.420 264.704 127.824 C 264.605 66.424,264.565 63.193,263.886 62.514 C 263.216 61.845,11.756 61.236,6.457 61.891 M245.200 106.600 L 245.200 134.800 150.833 134.800 C 98.931 134.800,56.181 134.909,55.833 135.043 C 55.258 135.264,55.200 147.231,55.200 266.643 L 55.200 398.000 48.401 398.000 L 41.601 398.000 41.501 266.500 L 41.400 135.000 31.500 134.893 L 21.600 134.786 21.600 106.593 L 21.600 78.400 133.400 78.400 L 245.200 78.400 245.200 106.600 M276.700 95.061 L 275.200 95.248 275.200 121.581 C 275.200 145.225,275.265 147.939,275.833 148.157 C 276.181 148.291,279.961 148.400,284.233 148.400 L 292.000 148.400 292.000 149.351 C 292.000 150.905,292.916 151.272,297.372 151.499 L 301.558 151.713 301.679 153.156 C 301.796 154.547,301.863 154.605,303.500 154.723 C 305.187 154.845,305.200 154.858,305.200 156.398 C 305.200 157.929,305.225 157.955,306.977 158.218 C 308.520 158.449,308.771 158.624,308.877 159.542 C 308.971 160.351,309.327 160.706,310.391 161.050 C 311.365 161.364,311.936 161.877,312.297 162.761 C 312.665 163.662,313.152 164.090,314.006 164.261 C 315.087 164.477,315.200 164.648,315.200 166.063 C 315.200 167.647,315.285 167.733,317.276 168.168 C 318.179 168.365,318.372 168.644,318.476 169.902 C 318.592 171.307,318.689 171.407,320.047 171.521 L 321.494 171.642 321.767 174.304 C 322.082 177.383,322.463 178.000,324.049 178.000 C 325.184 178.000,325.200 178.032,325.200 180.311 C 325.200 182.891,325.899 184.273,327.304 184.473 C 328.129 184.590,328.209 184.837,328.313 187.600 C 328.434 190.823,328.893 191.600,330.676 191.600 C 331.572 191.600,331.600 191.708,331.600 195.150 C 331.600 200.564,331.793 201.157,333.651 201.454 L 335.200 201.702 335.200 209.459 C 335.200 217.651,335.854 220.400,337.805 220.400 C 338.320 220.400,338.400 222.275,338.400 234.400 L 338.400 248.400 337.429 248.400 C 335.357 248.400,335.200 249.018,335.200 257.177 L 335.200 264.698 333.651 264.946 C 331.793 265.243,331.600 265.836,331.600 271.250 C 331.600 274.738,331.583 274.800,330.633 274.800 C 328.565 274.800,328.400 275.069,328.400 278.443 L 328.400 281.600 326.800 281.600 L 325.200 281.600 325.200 283.400 C 325.200 285.116,325.146 285.200,324.049 285.200 C 322.461 285.200,322.082 285.816,321.764 288.917 L 321.490 291.600 319.945 291.600 C 318.409 291.600,318.400 291.610,318.400 293.200 L 318.400 294.800 316.800 294.800 L 315.200 294.800 315.200 296.400 C 315.200 297.938,315.149 298.000,313.900 298.003 C 313.185 298.005,311.655 298.120,310.500 298.259 L 308.400 298.511 308.400 300.056 L 308.400 301.600 305.205 301.600 L 302.009 301.600 301.754 303.200 L 301.498 304.800 294.449 304.840 C 285.995 304.888,285.443 304.998,285.278 306.671 C 285.159 307.882,285.095 307.918,282.617 308.183 C 278.180 308.659,278.600 305.879,278.600 334.753 C 278.600 358.426,278.644 360.015,279.314 360.685 C 279.938 361.310,280.985 361.418,287.621 361.543 C 297.441 361.729,297.920 361.640,298.249 359.582 L 298.502 358.000 306.171 358.000 C 314.427 358.000,314.800 357.911,314.800 355.932 L 314.800 354.825 319.700 354.712 L 324.600 354.600 324.723 353.116 L 324.846 351.632 328.123 351.516 L 331.400 351.400 331.522 349.716 L 331.644 348.032 334.922 347.916 L 338.200 347.800 338.324 346.300 L 338.448 344.800 341.624 344.800 L 344.800 344.800 344.800 343.200 L 344.800 341.600 347.426 341.600 C 350.803 341.600,351.600 341.177,351.600 339.386 C 351.600 338.036,351.641 338.000,353.200 338.000 L 354.800 338.000 354.800 336.400 L 354.800 334.800 356.600 334.800 L 358.400 334.800 358.400 333.200 C 358.400 331.674,358.458 331.600,359.654 331.600 C 362.220 331.600,363.944 330.783,364.420 329.340 C 364.781 328.244,365.066 328.000,365.982 328.000 C 367.324 328.000,367.883 327.410,368.065 325.800 C 368.173 324.838,368.413 324.575,369.271 324.476 C 370.823 324.297,371.266 323.528,371.501 320.604 L 371.710 318.000 373.255 318.000 C 374.787 318.000,374.800 317.987,374.800 316.423 C 374.800 314.854,374.808 314.845,376.500 314.723 C 378.150 314.604,378.204 314.556,378.324 313.100 C 378.430 311.826,378.590 311.600,379.391 311.600 C 381.433 311.600,381.600 311.324,381.600 307.957 L 381.600 304.800 383.200 304.800 C 384.799 304.800,384.800 304.799,384.800 303.208 C 384.800 301.796,384.925 301.588,385.900 301.374 C 386.505 301.242,387.199 301.074,387.443 301.001 C 387.984 300.840,388.400 298.904,388.400 296.550 C 388.400 294.900,388.464 294.800,389.520 294.800 C 391.245 294.800,391.600 294.139,391.600 290.920 C 391.600 288.267,391.673 288.000,392.400 288.000 C 394.266 288.000,394.800 286.715,394.800 282.224 L 394.800 278.048 396.298 277.924 C 398.176 277.769,398.288 277.341,398.353 270.100 C 398.397 265.082,398.443 264.800,399.200 264.800 C 399.994 264.800,400.000 264.533,400.000 231.600 C 400.000 198.667,399.994 198.400,399.200 198.400 C 398.443 198.400,398.397 198.118,398.353 193.100 C 398.288 185.859,398.176 185.431,396.298 185.276 L 394.800 185.152 394.800 180.809 C 394.800 175.509,394.699 175.200,392.973 175.200 L 391.632 175.200 391.516 171.900 L 391.400 168.600 389.916 168.477 L 388.432 168.354 388.316 165.077 L 388.200 161.800 386.500 161.677 L 384.800 161.554 384.800 158.420 C 384.800 155.070,384.633 154.800,382.567 154.800 C 381.639 154.800,381.600 154.690,381.600 152.080 C 381.600 149.072,381.220 148.400,379.520 148.400 C 378.520 148.400,378.400 148.259,378.400 147.080 C 378.400 145.411,377.789 144.800,376.120 144.800 L 374.800 144.800 374.800 142.080 C 374.800 139.072,374.420 138.400,372.720 138.400 C 371.681 138.400,371.600 138.285,371.600 136.805 C 371.600 135.256,371.553 135.202,370.021 134.957 C 368.550 134.722,368.434 134.606,368.321 133.252 C 368.204 131.852,368.139 131.796,366.500 131.677 C 364.808 131.555,364.800 131.546,364.800 129.977 C 364.800 128.404,364.796 128.400,363.200 128.400 C 361.607 128.400,361.600 128.393,361.600 126.843 C 361.600 125.201,361.166 124.800,359.391 124.800 C 358.590 124.800,358.430 124.574,358.324 123.300 C 358.204 121.844,358.150 121.796,356.500 121.677 C 354.808 121.555,354.800 121.546,354.800 119.977 C 354.800 118.404,354.796 118.400,353.200 118.400 C 351.723 118.400,351.600 118.316,351.594 117.300 C 351.584 115.551,351.186 115.302,347.900 114.995 L 344.800 114.706 344.800 113.153 C 344.800 111.608,344.792 111.600,343.200 111.600 C 341.714 111.600,341.600 111.520,341.600 110.480 C 341.600 108.755,340.939 108.400,337.720 108.400 L 334.800 108.400 334.800 106.852 C 334.800 105.139,334.055 104.815,330.090 104.804 C 328.507 104.800,328.362 104.710,328.137 103.586 C 327.795 101.877,326.999 101.600,322.426 101.600 C 318.624 101.600,318.400 101.554,318.400 100.774 C 318.400 98.502,318.091 98.400,311.230 98.400 L 304.889 98.400 304.634 97.039 C 304.493 96.290,304.068 95.557,303.689 95.411 C 302.880 95.097,278.898 94.787,276.700 95.061 M235.287 419.486 L 235.400 424.171 236.900 424.525 L 238.400 424.879 238.400 427.826 C 238.400 430.964,238.800 431.600,240.774 431.600 C 241.471 431.600,241.600 431.850,241.600 433.200 L 241.600 434.800 133.100 434.801 L 24.600 434.802 24.726 431.279 C 24.851 427.811,24.871 427.749,26.003 427.321 C 27.812 426.638,28.400 424.683,28.400 419.351 L 28.400 414.800 131.787 414.800 L 235.175 414.800 235.287 419.486 " stroke="none" fill="#040404" fill-rule="evenodd"></path><path id="path1" d="" stroke="none" fill="#080404" fill-rule="evenodd"></path><path id="path2" d="" stroke="none" fill="#080404" fill-rule="evenodd"></path><path id="path3" d="" stroke="none" fill="#080404" fill-rule="evenodd"></path><path id="path4" d="" stroke="none" fill="#080404" fill-rule="evenodd"></path></g></svg>