<svg id="svg" xmlns="http://www.w3.org/2000/svg" xmlns:xlink="http://www.w3.org/1999/xlink" width="400" height="287.09677419354836" viewBox="0, 0, 400,287.09677419354836" version="1.1"><g id="svgg"><path id="path0" d="M71.873 9.496 C 23.834 32.222,8.446 59.951,7.325 125.806 C 6.832 154.715,5.033 175.429,2.612 180.038 C -0.440 185.852,-0.449 188.863,2.574 193.704 C 6.705 200.317,7.897 223.285,4.297 226.885 C -0.532 231.715,1.442 274.208,6.572 275.840 C 35.224 284.959,251.613 292.475,251.613 284.351 C 251.613 282.841,278.105 280.675,310.484 279.538 C 342.863 278.401,376.250 276.545,384.677 275.413 L 400.000 273.355 400.000 214.051 L 400.000 154.748 389.516 145.237 C 358.165 116.798,252.194 86.925,241.662 103.558 C 239.624 106.776,238.794 106.912,238.759 104.032 C 238.727 101.411,233.630 100.000,224.194 100.000 C 216.210 100.000,209.677 101.452,209.677 103.226 C 209.677 110.026,189.797 106.753,187.939 99.647 C 186.342 93.540,184.587 93.050,170.825 94.876 L 155.491 96.910 150.584 82.509 C 147.886 74.588,147.000 67.662,148.617 67.118 C 153.155 65.592,147.364 38.102,141.903 35.241 C 139.259 33.856,134.560 31.940,131.461 30.983 C 128.361 30.025,122.628 22.662,118.721 14.621 C 109.913 -3.508,101.343 -4.446,71.873 9.496 M116.006 27.732 L 125.373 44.174 111.074 47.446 L 96.774 50.718 96.774 29.961 C 96.774 4.174,102.224 3.542,116.006 27.732 M90.323 33.555 C 90.323 53.856,90.144 54.278,79.839 58.345 C 74.073 60.621,68.266 63.062,66.935 63.769 C 65.605 64.475,64.516 55.427,64.516 43.661 C 64.516 22.612,64.684 22.196,75.000 17.712 C 90.310 11.058,90.323 11.072,90.323 33.555 M55.979 49.804 C 55.534 69.371,54.831 71.171,43.882 80.785 L 32.258 90.991 32.258 70.979 C 32.258 52.522,33.110 50.116,43.226 40.000 C 57.211 26.015,56.532 25.493,55.979 49.804 M141.935 56.007 C 141.935 58.929,136.011 61.098,124.260 62.479 C 101.965 65.100,73.602 75.485,54.839 87.899 C 40.427 97.434,40.380 97.441,48.273 88.935 C 67.164 68.579,141.935 42.293,141.935 56.007 M21.137 103.963 L 16.129 111.113 16.129 102.146 C 16.129 97.215,17.944 86.367,20.161 78.041 L 24.194 62.903 25.169 79.858 C 25.828 91.299,24.516 99.138,21.137 103.963 M140.126 79.839 C 141.290 84.718,142.997 91.250,143.919 94.355 C 145.094 98.309,143.799 100.000,139.594 100.000 C 135.608 100.000,132.556 96.482,130.506 89.523 C 126.025 74.313,102.921 72.811,98.282 87.429 C 96.718 92.354,95.166 93.231,92.583 90.647 C 90.630 88.695,86.056 87.053,82.419 86.999 C 72.497 86.851,82.339 81.785,103.722 76.032 C 130.864 68.730,137.646 69.439,140.126 79.839 M121.988 95.968 C 120.446 109.375,108.106 110.154,107.097 96.907 C 106.442 88.317,107.385 87.097,114.679 87.097 C 121.863 87.097,122.869 88.317,121.988 95.968 M65.098 101.875 C 64.131 110.154,62.761 112.439,60.262 109.939 C 58.344 108.021,53.839 106.452,50.252 106.452 C 44.979 106.452,45.875 104.938,54.930 98.545 C 61.089 94.197,66.200 90.568,66.288 90.481 C 66.375 90.394,65.840 95.521,65.098 101.875 M87.097 106.106 C 87.097 111.641,85.020 116.236,81.994 117.397 C 74.311 120.345,74.194 120.204,74.194 108.065 C 74.194 98.925,75.422 96.774,80.645 96.774 C 85.610 96.774,87.097 98.925,87.097 106.106 M180.645 106.390 C 180.645 109.785,179.892 109.995,139.368 117.867 C 96.455 126.204,46.175 145.509,27.419 160.852 C 21.039 166.071,21.034 166.050,27.020 158.974 C 45.999 136.535,180.645 90.448,180.645 106.390 M229.032 112.903 C 229.032 114.677,233.387 116.129,238.710 116.129 C 244.032 116.129,248.387 114.490,248.387 112.486 C 248.387 107.651,284.375 111.178,314.526 118.969 C 339.606 125.449,369.268 138.015,360.484 138.438 C 349.014 138.990,352.949 161.290,364.516 161.290 C 372.856 161.290,374.194 160.098,374.194 152.664 L 374.194 144.037 382.258 151.613 C 390.269 159.139,390.320 159.543,389.892 212.659 C 389.624 245.853,388.641 260.233,387.299 250.582 C 382.890 218.870,358.507 220.909,357.610 253.065 L 357.156 269.355 355.143 252.857 C 350.737 216.760,326.051 216.812,325.602 252.919 C 325.434 266.460,324.866 268.028,322.377 261.819 C 315.938 245.751,313.584 219.135,318.195 214.524 C 326.724 205.995,324.030 165.615,314.516 159.381 C 305.166 153.254,290.323 159.755,290.323 169.976 C 290.323 178.586,274.304 144.661,272.132 131.452 L 270.143 119.355 231.039 118.791 C 209.532 118.481,198.105 117.672,205.645 116.993 C 213.185 116.314,219.355 114.390,219.355 112.718 C 219.355 111.046,221.532 109.677,224.194 109.677 C 226.855 109.677,229.032 111.129,229.032 112.903 M35.484 124.589 C 35.484 131.773,34.749 132.438,30.605 128.999 C 26.895 125.920,26.603 123.895,29.387 120.540 C 34.540 114.332,35.484 114.959,35.484 124.589 M54.839 122.186 C 54.839 125.517,52.661 130.049,50.000 132.258 C 45.875 135.682,45.161 134.789,45.161 126.201 C 45.161 119.399,46.732 116.129,50.000 116.129 C 52.661 116.129,54.839 118.855,54.839 122.186 M280.645 130.645 C 280.645 145.084,280.705 145.161,291.935 145.161 C 304.660 145.161,309.822 122.576,298.123 118.087 C 284.450 112.840,280.645 115.573,280.645 130.645 M181.929 123.888 C 176.498 138.042,196.501 182.880,209.107 184.809 C 213.856 185.536,207.944 186.348,195.968 186.613 L 174.194 187.097 174.194 166.129 C 174.194 117.131,136.167 119.471,134.862 168.548 L 134.241 191.935 133.076 171.030 C 131.813 148.350,126.320 138.710,114.661 138.710 C 102.931 138.710,100.032 145.110,99.390 172.419 C 98.837 195.948,98.669 196.574,97.594 179.083 C 96.302 158.071,90.492 148.387,79.177 148.387 C 67.451 148.387,64.548 154.791,63.895 182.097 C 63.316 206.277,63.195 206.695,62.135 188.176 C 60.000 150.871,42.268 152.362,41.496 189.911 C 41.255 201.670,40.500 207.661,39.820 203.226 C 39.139 198.790,37.838 190.541,36.928 184.894 C 35.924 178.669,33.091 174.179,29.733 173.491 C 11.731 169.804,92.929 136.709,146.774 125.787 C 183.088 118.422,184.046 118.370,181.929 123.888 M316.129 140.118 C 316.129 154.836,316.131 154.839,327.605 154.839 L 339.081 154.839 338.089 141.129 C 336.480 118.896,316.129 117.959,316.129 140.118 M261.290 136.662 C 261.290 140.858,264.033 147.778,267.384 152.039 C 270.736 156.299,275.743 165.205,278.510 171.828 L 283.542 183.871 275.411 183.871 C 264.247 183.871,258.065 176.710,258.065 163.779 C 258.065 157.797,256.323 151.161,254.194 149.032 C 243.687 138.526,223.672 150.833,226.574 166.016 C 227.521 170.969,226.662 174.194,224.394 174.194 C 222.061 174.194,221.117 170.198,221.888 163.594 C 223.291 151.575,212.491 142.830,200.212 146.041 C 195.954 147.154,193.548 146.240,193.548 143.510 C 193.548 141.160,192.667 136.941,191.590 134.135 C 189.877 129.671,194.115 129.032,225.461 129.032 C 260.984 129.032,261.290 129.098,261.290 136.662 M163.857 165.323 C 164.382 177.298,163.656 187.117,162.244 187.141 C 160.832 187.165,156.411 188.060,152.419 189.130 C 145.084 191.096,140.645 150.753,147.448 143.950 C 156.208 135.190,162.920 143.933,163.857 165.323 M122.581 171.808 C 124.129 192.688,123.904 193.554,116.935 193.551 C 110.093 193.549,109.677 192.242,109.677 170.731 C 109.677 137.827,120.125 138.698,122.581 171.808 M212.311 165.350 C 213.011 171.417,211.854 174.194,208.624 174.194 C 203.772 174.194,200.000 167.625,200.000 159.177 C 200.000 150.366,211.232 155.998,212.311 165.350 M250.044 166.935 C 250.757 176.060,249.866 177.419,243.173 177.419 C 236.881 177.419,235.484 175.759,235.484 168.280 C 235.484 150.969,248.701 149.749,250.044 166.935 M87.628 178.818 C 88.621 197.862,88.143 199.679,81.835 200.878 C 74.570 202.259,68.229 175.407,72.928 163.161 C 78.312 149.130,86.537 157.890,87.628 178.818 M329.146 167.530 C 327.309 170.962,325.806 183.300,325.806 194.949 L 325.806 216.129 340.675 216.129 L 355.544 216.129 354.314 191.774 C 353.057 166.883,350.146 161.448,338.017 161.340 C 334.974 161.313,330.982 164.098,329.146 167.530 M312.903 175.997 C 312.903 181.720,311.141 183.871,306.452 183.871 C 299.101 183.871,297.038 169.342,304.032 166.833 C 310.231 164.610,312.903 167.370,312.903 175.997 M361.935 171.613 C 359.684 173.865,358.065 184.659,358.065 197.419 L 358.065 219.355 372.581 219.355 L 387.097 219.355 387.097 198.887 C 387.097 172.765,374.470 159.078,361.935 171.613 M50.611 186.290 C 49.799 189.395,49.135 186.855,49.135 180.645 C 49.135 174.435,49.799 171.895,50.611 175.000 C 51.422 178.105,51.422 183.185,50.611 186.290 M345.161 188.710 C 345.161 202.330,344.037 206.452,340.323 206.452 C 336.608 206.452,335.484 202.330,335.484 188.710 C 335.484 175.090,336.608 170.968,340.323 170.968 C 344.037 170.968,345.161 175.090,345.161 188.710 M376.790 194.607 C 377.566 206.510,376.719 209.677,372.757 209.677 C 368.878 209.677,367.742 205.962,367.742 193.280 C 367.742 171.964,375.386 173.085,376.790 194.607 M28.117 208.871 C 27.378 213.750,26.773 209.758,26.773 200.000 C 26.773 190.242,27.378 186.250,28.117 191.129 C 28.856 196.008,28.856 203.992,28.117 208.871 M255.376 190.246 C 255.968 191.978,267.574 193.607,281.167 193.866 L 305.882 194.336 305.893 218.942 C 305.899 232.993,308.035 249.430,310.873 257.258 C 315.640 270.408,315.585 270.968,309.534 270.968 C 303.926 270.968,303.226 268.660,303.226 250.183 C 303.226 220.662,288.828 210.193,272.483 227.830 C 266.042 234.780,264.284 235.405,262.711 231.306 C 261.656 228.557,255.008 223.993,247.938 221.164 C 237.852 217.129,235.492 214.735,236.979 210.049 C 238.021 206.765,237.421 200.257,235.646 195.587 C 232.553 187.451,232.875 187.097,243.359 187.097 C 249.377 187.097,254.785 188.514,255.376 190.246 M226.973 198.387 C 228.552 202.502,223.656 203.229,194.254 203.250 C 162.887 203.272,130.045 205.924,90.323 211.641 C 82.339 212.790,76.604 212.867,77.578 211.813 C 81.904 207.135,148.216 198.742,218.203 194.015 C 222.005 193.758,225.952 195.726,226.973 198.387 M139.318 219.481 C 133.197 225.183,132.258 229.474,132.258 251.739 C 132.258 266.709,130.913 277.419,129.032 277.419 C 127.152 277.419,125.806 266.728,125.806 251.796 C 125.806 229.284,124.970 225.586,118.915 221.345 C 112.343 216.742,112.754 216.462,127.786 215.292 C 136.455 214.618,144.185 213.804,144.963 213.485 C 145.741 213.165,143.201 215.863,139.318 219.481 M188.386 215.372 C 180.856 220.400,177.419 232.702,177.419 254.627 C 177.419 267.671,176.040 277.419,174.194 277.419 C 172.318 277.419,170.968 266.872,170.968 252.229 C 170.968 227.095,168.051 218.711,158.065 215.142 C 155.403 214.191,161.935 213.320,172.581 213.207 C 183.226 213.094,190.338 214.068,188.386 215.372 M227.955 216.935 C 229.346 219.153,230.109 223.258,229.649 226.058 C 229.190 228.857,232.479 239.019,236.957 248.639 C 247.910 272.169,247.565 274.194,232.600 274.194 L 220.038 274.194 218.853 248.100 C 217.891 226.908,216.499 221.152,211.443 217.455 C 205.598 213.180,205.834 212.903,215.322 212.903 C 220.879 212.903,226.564 214.718,227.955 216.935 M103.002 224.464 C 100.670 227.273,97.802 239.975,96.628 252.689 L 94.495 275.806 94.021 254.263 C 93.707 239.951,91.926 231.096,88.715 227.885 C 83.525 222.695,86.689 220.628,101.201 219.729 C 106.355 219.410,106.619 220.105,103.002 224.464 M74.839 226.452 C 72.671 228.619,70.751 240.331,70.476 253.065 L 69.984 275.806 68.044 255.376 C 66.667 240.871,64.388 233.690,60.186 230.618 C 54.677 226.590,54.901 226.195,63.424 224.919 C 68.460 224.164,73.960 223.330,75.645 223.064 C 77.331 222.798,76.968 224.323,74.839 226.452 M160.614 250.842 L 161.551 277.419 151.743 277.419 L 141.935 277.419 141.935 251.882 C 141.935 226.124,143.725 222.206,154.839 223.640 C 158.610 224.127,159.884 230.129,160.614 250.842 M207.719 227.683 C 208.796 230.490,209.677 242.828,209.677 255.103 L 209.677 277.419 198.387 277.419 L 187.097 277.419 187.097 255.103 C 187.097 227.810,188.912 222.581,198.387 222.581 C 202.443 222.581,206.642 224.877,207.719 227.683 M48.417 233.835 C 46.224 236.477,43.119 237.829,41.517 236.838 C 37.400 234.294,41.337 229.032,47.360 229.032 C 51.460 229.032,51.658 229.930,48.417 233.835 M116.129 253.495 C 116.129 271.622,115.085 277.613,112.097 276.630 C 107.672 275.173,104.904 248.542,107.925 236.504 C 111.839 220.909,116.129 229.793,116.129 253.495 M252.995 234.101 C 256.232 237.338,258.065 244.917,258.065 255.069 C 258.065 272.128,253.339 276.705,250.808 262.097 C 249.963 257.218,246.876 247.782,243.947 241.129 C 238.043 227.714,242.864 223.970,252.995 234.101 M292.896 251.062 C 293.833 270.495,293.661 270.968,285.638 270.968 C 276.337 270.968,272.526 234.753,281.452 231.183 C 289.758 227.860,291.961 231.688,292.896 251.062 M83.871 253.226 C 83.871 265.054,82.465 274.194,80.645 274.194 C 77.155 274.194,76.175 245.707,79.377 237.361 C 82.860 228.284,83.871 231.852,83.871 253.226 M345.161 253.071 C 345.161 262.523,343.594 267.653,340.323 268.908 C 335.326 270.826,332.802 242.467,337.547 237.722 C 341.975 233.294,345.161 239.718,345.161 253.071 M57.177 265.265 C 56.459 271.063,55.856 267.097,55.838 256.452 C 55.820 245.806,56.408 241.063,57.144 245.910 C 57.880 250.757,57.894 259.467,57.177 265.265 M376.798 254.283 C 377.569 264.741,376.670 267.742,372.766 267.742 C 368.949 267.742,367.742 264.191,367.742 252.957 C 367.742 233.918,375.380 235.037,376.798 254.283 " stroke="none" fill="#000000" fill-rule="evenodd"></path></g></svg>