<svg id="svg" xmlns="http://www.w3.org/2000/svg" xmlns:xlink="http://www.w3.org/1999/xlink" width="400" height="291.6666666666667" viewBox="0, 0, 400,291.6666666666667" version="1.1"><g id="svgg"><path id="path0" d="M179.652 1.839 C 171.267 3.279,171.141 4.699,176.782 34.136 L 178.267 41.883 200.939 41.081 L 223.611 40.278 225.795 22.554 C 226.996 12.806,227.456 4.308,226.818 3.670 C 224.943 1.795,188.209 0.369,179.652 1.839 M144.687 8.577 C 119.077 15.157,120.307 13.350,128.130 32.902 C 135.590 51.547,134.648 51.094,156.508 46.579 L 172.739 43.226 170.849 25.085 C 168.440 1.965,169.013 2.327,144.687 8.577 M232.252 7.781 C 231.500 10.376,230.094 19.375,229.125 27.778 L 227.365 43.056 245.933 47.433 L 264.501 51.810 269.762 39.536 C 280.359 14.816,280.496 15.205,259.237 9.792 C 248.810 7.137,238.779 4.537,236.948 4.013 C 235.116 3.490,233.003 5.185,232.252 7.781 M276.649 33.754 C 268.109 53.445,267.981 54.717,274.330 56.732 C 277.018 57.585,285.704 62.555,293.633 67.777 L 308.049 77.271 319.743 61.781 L 331.438 46.292 323.978 40.344 C 319.876 37.072,309.169 30.513,300.186 25.769 L 283.854 17.142 276.649 33.754 M97.222 27.812 C 88.819 32.267,78.935 38.298,75.256 41.215 L 68.568 46.518 80.586 61.906 L 92.604 77.294 106.682 67.814 C 114.424 62.599,122.265 58.333,124.105 58.333 C 130.737 58.333,130.849 52.364,124.522 36.049 C 117.123 16.967,117.476 17.073,97.222 27.812 M187.431 46.185 C 181.869 47.431,181.854 47.830,186.091 81.361 L 190.376 115.278 200.292 116.113 L 210.209 116.948 214.428 82.780 C 216.749 63.987,218.416 48.304,218.132 47.929 C 216.974 46.397,192.655 45.016,187.431 46.185 M154.167 51.850 C 146.528 54.182,139.779 56.573,139.169 57.163 C 138.560 57.753,144.071 72.749,151.416 90.488 L 164.772 122.740 173.156 121.063 C 177.767 120.141,181.897 119.029,182.334 118.592 C 184.562 116.363,173.557 47.248,171.000 47.416 C 169.381 47.522,161.806 49.517,154.167 51.850 M226.520 50.503 C 225.128 54.648,217.119 117.725,217.865 118.665 C 218.131 119.000,222.407 119.625,227.368 120.054 C 236.376 120.832,236.401 120.798,248.749 90.852 C 263.767 54.430,263.737 56.448,249.306 52.720 C 242.812 51.042,235.306 49.033,232.625 48.254 C 229.944 47.476,227.197 48.488,226.520 50.503 M46.232 66.264 L 30.138 82.528 44.598 94.042 C 62.301 108.137,60.049 108.258,75.692 92.361 L 88.675 79.167 77.545 64.583 C 63.893 46.697,65.690 46.600,46.232 66.264 M322.760 64.889 L 311.519 79.777 324.938 92.995 C 339.615 107.451,338.922 107.467,357.873 92.247 L 369.912 82.578 353.793 66.289 C 334.314 46.605,336.490 46.703,322.760 64.889 M111.723 69.575 L 97.058 77.984 118.538 106.353 C 130.353 121.956,140.281 135.135,140.602 135.639 C 140.922 136.143,144.731 134.333,149.065 131.618 C 153.398 128.903,157.226 126.543,157.569 126.374 C 159.128 125.605,131.113 62.689,128.892 61.973 C 127.515 61.529,119.789 64.950,111.723 69.575 M266.813 67.361 C 265.442 70.799,259.401 85.566,253.390 100.177 L 242.461 126.743 250.774 131.514 C 255.345 134.138,259.338 135.933,259.645 135.503 C 259.953 135.074,269.802 121.946,281.533 106.330 L 302.860 77.937 288.236 69.550 C 270.679 59.482,269.985 59.411,266.813 67.361 M77.029 96.653 L 64.234 109.722 89.577 129.167 C 123.518 155.208,121.593 154.338,129.276 147.120 L 135.867 140.928 114.829 113.481 C 88.871 79.617,92.238 81.116,77.029 96.653 M287.814 110.696 C 276.183 126.055,266.667 139.737,266.667 141.102 C 266.667 145.843,277.380 153.350,281.075 151.198 C 284.242 149.353,328.350 116.058,334.010 111.238 C 335.147 110.271,329.976 103.470,322.519 96.126 L 308.961 82.772 287.814 110.696 M21.481 96.742 C 17.667 102.505,11.326 113.575,7.392 121.340 L 0.237 135.459 16.997 142.980 C 26.215 147.117,34.128 150.076,34.581 149.556 C 35.034 149.037,37.586 144.236,40.252 138.889 C 42.919 133.542,48.222 124.998,52.037 119.904 C 55.853 114.809,57.893 109.747,56.571 108.654 C 55.248 107.561,48.373 102.076,41.291 96.464 L 28.416 86.262 21.481 96.742 M361.111 94.866 C 357.292 98.052,351.220 102.983,347.619 105.824 L 341.071 110.990 347.619 118.774 C 351.220 123.055,356.553 131.853,359.471 138.326 C 365.297 151.252,365.206 151.242,387.631 141.323 C 401.609 135.139,401.635 135.558,385.554 107.639 C 373.841 87.303,371.590 86.126,361.111 94.866 M50.058 129.861 C 38.479 148.299,37.989 147.645,75.057 163.236 L 108.447 177.281 112.793 168.877 C 115.184 164.255,116.096 159.592,114.820 158.517 C 102.213 147.886,61.346 116.667,60.036 116.667 C 59.105 116.667,54.615 122.604,50.058 129.861 M316.667 133.782 C 305.208 142.993,292.836 152.717,289.173 155.391 C 282.608 160.182,282.583 160.373,287.440 168.595 L 292.368 176.938 325.351 163.065 C 361.935 147.677,361.676 148.026,350.061 129.711 C 339.935 113.743,341.891 113.504,316.667 133.782 M196.613 159.028 L 195.833 193.056 187.867 161.767 C 180.856 134.230,174.995 120.253,175.002 131.086 C 175.005 135.222,190.630 194.349,192.097 195.774 C 192.624 196.286,198.029 197.127,204.108 197.643 L 215.161 198.581 232.373 168.065 C 241.840 151.281,248.952 136.915,248.177 136.140 C 246.071 134.034,239.993 143.149,225.526 170.112 C 218.362 183.465,211.489 194.402,210.253 194.417 C 209.017 194.432,208.726 193.278,209.608 191.852 C 213.302 185.874,227.131 127.778,224.859 127.778 C 222.376 127.778,218.456 139.898,209.134 176.389 L 204.167 195.833 203.389 160.417 C 202.395 115.145,197.641 114.171,196.613 159.028 M150.000 137.402 C 150.000 139.132,180.480 192.123,184.009 196.528 C 193.301 208.124,178.441 196.404,157.781 175.839 C 144.430 162.550,132.580 152.606,131.446 153.739 C 130.312 154.873,140.953 166.524,155.093 179.630 C 186.750 208.973,186.159 210.110,150.372 188.708 C 134.822 179.408,120.592 172.303,118.749 172.917 C 116.906 173.531,129.603 182.415,146.965 192.658 C 164.327 202.902,178.688 210.932,178.879 210.502 C 179.070 210.073,181.528 206.982,184.342 203.633 C 189.397 197.618,189.247 197.174,171.940 166.828 C 157.123 140.847,150.000 131.294,150.000 137.402 M239.868 175.677 C 217.917 198.288,215.037 202.347,218.035 206.447 C 221.172 210.736,224.264 209.478,251.717 192.741 C 286.062 171.801,284.761 172.724,282.757 170.720 C 281.101 169.064,228.715 199.014,226.227 203.040 C 225.372 204.424,223.209 205.556,221.422 205.556 C 219.634 205.556,229.233 194.443,242.752 180.860 C 256.272 167.278,266.843 154.695,266.244 152.898 C 265.645 151.101,253.776 161.351,239.868 175.677 M193.449 202.421 C 178.972 208.114,180.512 231.125,195.625 234.918 C 210.237 238.585,221.869 224.112,215.046 210.753 C 209.967 200.808,203.698 198.390,193.449 202.421 M191.667 242.943 C 191.667 245.173,188.471 249.961,184.564 253.583 C 178.278 259.412,177.955 260.578,181.751 263.728 C 188.633 269.440,195.163 265.207,193.282 256.252 C 192.026 250.273,196.113 236.055,197.474 241.667 C 199.505 250.038,198.079 272.111,195.210 276.691 C 192.097 281.661,192.204 283.099,195.910 286.175 C 201.852 291.107,211.534 282.645,206.131 277.242 C 204.287 275.398,202.778 266.773,202.778 258.075 C 202.778 246.217,201.679 241.839,198.384 240.575 C 192.193 238.199,191.667 238.385,191.667 242.943 " stroke="none" fill="#000000" fill-rule="evenodd"></path></g></svg>