<svg id="svg" xmlns="http://www.w3.org/2000/svg" xmlns:xlink="http://www.w3.org/1999/xlink" width="400" height="669.7674418604652" viewBox="0, 0, 400,669.7674418604652" version="1.1"><g id="svgg"><path id="path0" d="M123.256 8.885 C 78.154 29.929,32.558 91.889,32.558 132.134 C 32.558 143.577,30.380 154.285,27.719 155.930 C 5.843 169.450,-12.074 252.454,4.651 262.791 C 7.209 264.372,9.302 269.447,9.302 274.068 C 9.302 323.593,87.636 407.787,145.928 420.915 L 169.684 426.266 175.008 470.110 C 199.307 670.216,205.424 684.517,257.422 662.791 C 267.097 658.748,288.419 655.814,308.118 655.814 C 381.120 655.814,377.314 621.863,285.275 452.049 L 264.328 413.400 271.699 394.978 C 289.933 349.406,274.021 274.772,233.831 217.369 C 221.619 199.927,208.488 180.516,204.651 174.232 C 194.790 158.084,186.067 159.797,185.944 177.907 C 185.530 239.185,120.246 280.656,73.837 249.121 C 20.829 213.101,35.325 143.454,112.274 64.453 C 157.912 17.598,211.846 12.449,188.517 57.173 C 162.042 107.931,178.892 124.199,285.789 151.082 C 311.228 157.480,340.354 166.826,350.513 171.853 C 360.672 176.879,370.730 179.912,372.864 178.593 C 374.998 177.274,376.744 180.650,376.744 186.096 C 376.744 193.702,379.169 195.651,387.209 194.510 C 396.971 193.123,397.765 190.432,399.028 154.470 L 400.382 115.917 373.447 89.224 C 333.058 49.198,251.278 10.801,214.608 14.647 C 206.763 15.470,198.164 12.782,193.398 8.016 C 182.624 -2.758,147.269 -2.319,123.256 8.885 M150.605 43.963 C 146.762 53.977,152.576 60.465,165.391 60.465 C 174.400 60.465,176.744 58.065,176.744 48.837 C 176.744 35.568,155.356 31.580,150.605 43.963 " stroke="none" fill="#000000" fill-rule="evenodd"></path></g></svg>