<svg id="svg" xmlns="http://www.w3.org/2000/svg" xmlns:xlink="http://www.w3.org/1999/xlink" width="400" height="481.5724815724816" viewBox="0, 0, 400,481.5724815724816"><g id="svgg"><path id="path0" d="M98.280 0.489 C 88.785 0.849,87.466 1.213,85.344 4.054 C 81.339 9.417,82.357 12.367,93.355 27.258 C 109.270 48.807,128.267 79.075,127.080 80.995 C 126.935 81.230,124.870 81.561,122.493 81.730 C 107.168 82.818,102.776 85.516,84.184 105.268 C 62.237 128.584,54.653 132.310,42.973 125.518 C 34.041 120.324,28.488 120.523,24.981 126.163 C 18.627 136.383,34.106 148.497,52.580 147.760 C 68.582 147.122,78.324 141.513,94.991 123.342 C 109.933 107.051,114.625 102.703,117.261 102.703 L 118.444 102.703 117.259 105.037 C 115.581 108.341,111.403 115.322,102.628 129.484 C 23.245 257.598,-11.348 353.622,4.467 401.966 C 20.518 451.032,87.743 479.519,191.892 481.390 C 309.233 483.498,386.528 450.534,398.291 393.366 C 408.252 344.957,369.864 244.607,296.876 128.256 C 277.582 97.500,278.820 99.751,281.204 99.762 C 294.065 99.824,307.109 107.166,311.945 117.063 C 313.850 120.963,314.971 124.193,320.863 142.752 C 326.183 159.513,331.510 166.982,342.957 173.736 C 347.845 176.619,350.050 176.924,353.567 175.203 C 360.697 171.715,361.686 161.729,355.273 157.985 C 349.033 154.343,346.360 149.918,341.020 134.398 C 326.714 92.812,314.665 82.256,278.747 79.840 C 275.977 79.653,273.711 79.359,273.712 79.185 C 273.732 76.101,289.842 50.880,305.967 28.688 C 319.074 10.650,319.465 9.308,313.511 2.793 L 310.958 0.000 208.919 0.081 C 152.797 0.126,103.010 0.310,98.280 0.489 M283.913 20.565 L 286.498 20.885 282.716 26.536 C 267.745 48.902,255.414 70.452,252.750 78.904 L 251.908 81.577 200.097 81.452 L 148.286 81.327 146.979 77.641 C 143.988 69.209,133.591 50.685,121.152 31.630 C 117.491 26.022,114.496 21.144,114.496 20.790 C 114.496 20.101,278.404 19.883,283.913 20.565 M176.904 52.511 C 159.199 52.871,159.217 52.867,156.519 57.231 C 153.217 62.572,155.105 69.416,160.426 71.391 C 167.888 74.162,232.688 73.768,238.699 70.915 C 244.404 68.209,244.302 57.051,238.549 54.320 C 234.749 52.517,210.965 51.819,176.904 52.511 M261.567 110.319 C 353.799 253.000,394.673 358.635,374.296 401.653 C 358.249 435.527,305.545 457.224,231.450 460.460 C 215.877 461.140,172.687 461.140,164.128 460.460 C 83.806 454.079,35.810 431.827,23.646 395.332 C 8.730 350.577,52.554 242.092,138.732 110.440 L 144.443 101.716 200.305 101.841 L 256.167 101.966 261.567 110.319 M161.671 111.905 C 156.273 112.886,152.984 122.052,156.265 126.972 C 159.283 131.497,161.450 131.740,198.526 131.711 C 241.687 131.678,242.095 131.583,242.627 121.425 L 242.823 117.690 240.274 114.619 L 237.725 111.548 200.312 111.615 C 179.735 111.652,162.346 111.782,161.671 111.905 M207.125 189.159 C 200.079 190.868,199.051 193.169,198.154 209.256 L 197.789 215.809 193.612 217.160 C 166.371 225.965,151.492 253.875,162.416 275.676 C 167.343 285.508,178.292 294.054,194.174 300.463 L 198.280 302.120 198.274 326.121 C 198.267 351.968,198.189 352.826,195.860 352.826 C 192.824 352.826,184.800 348.650,173.077 340.968 C 169.007 338.301,165.835 336.569,164.656 336.370 C 156.699 335.026,150.418 344.349,154.812 350.982 C 159.710 358.378,178.991 369.233,193.980 373.034 L 198.526 374.186 198.526 381.843 C 198.526 394.391,199.621 397.761,204.486 400.185 C 213.373 404.614,219.165 398.060,219.165 383.575 C 219.165 381.607,219.302 378.682,219.470 377.076 L 219.775 374.155 222.955 373.244 C 236.738 369.297,251.682 356.124,256.229 343.913 C 264.637 321.336,253.035 301.679,224.201 289.650 L 219.656 287.754 219.656 262.026 L 219.656 236.297 220.762 236.632 C 223.696 237.521,227.687 240.497,234.028 246.525 C 240.937 253.093,243.545 253.915,248.553 251.100 C 261.323 243.923,247.860 225.358,223.782 216.939 L 219.799 215.547 219.470 208.649 C 218.695 192.413,215.367 187.159,207.125 189.159 M197.902 237.715 C 198.399 239.493,198.393 276.991,197.895 278.775 C 196.811 282.662,182.348 272.096,179.863 265.602 C 176.926 257.925,180.360 247.253,187.555 241.703 C 193.453 237.153,197.327 235.660,197.902 237.715 M225.061 311.851 C 237.961 318.573,241.987 330.242,235.511 342.140 C 233.152 346.474,223.305 353.808,219.845 353.808 C 219.074 353.808,218.886 335.132,219.488 318.498 C 219.860 308.225,219.326 308.862,225.061 311.851 " stroke="none" fill="#000000" fill-rule="evenodd"></path></g></svg>