<svg id="svg" xmlns="http://www.w3.org/2000/svg" xmlns:xlink="http://www.w3.org/1999/xlink" width="400" height="510.9090909090909" viewBox="0, 0, 400,510.9090909090909"><g id="svgg"><path id="path0" d="M266.136 0.481 C 229.032 4.278,193.308 34.142,180.675 71.922 C 179.341 75.911,178.146 79.278,178.020 79.404 C 177.894 79.530,174.044 79.816,169.464 80.039 C 148.587 81.057,134.570 84.414,119.881 91.915 C 65.287 119.794,48.080 188.214,82.149 241.947 C 85.615 247.414,85.708 246.091,81.334 253.534 C 79.317 256.965,76.422 262.288,74.901 265.363 L 72.134 270.953 73.799 277.863 C 76.171 287.701,76.206 287.470,72.159 288.646 C 55.919 293.362,55.009 294.564,58.181 307.111 C 60.437 316.035,60.734 315.489,52.504 317.552 C 40.491 320.562,39.217 322.759,42.251 335.227 C 43.224 339.227,43.883 342.628,43.715 342.783 C 43.547 342.939,40.648 343.842,37.273 344.789 C 23.612 348.622,22.884 349.924,26.591 363.896 C 28.532 371.209,28.562 371.041,25.160 371.762 C 18.420 373.191,12.128 375.498,10.689 377.069 C 7.707 380.325,0.455 393.788,0.455 396.067 C 0.455 397.798,6.394 412.918,12.176 425.909 C 18.661 440.479,18.443 440.252,25.893 440.168 C 33.952 440.078,64.501 436.240,66.751 435.036 C 68.329 434.191,73.391 426.777,78.879 417.273 C 79.673 415.898,82.114 411.705,84.305 407.955 C 86.495 404.205,90.178 397.864,92.488 393.864 C 94.799 389.864,97.878 384.545,99.331 382.045 C 100.783 379.545,102.724 376.170,103.642 374.545 C 104.561 372.920,106.847 368.932,108.724 365.682 C 110.600 362.432,114.379 355.886,117.122 351.136 C 119.864 346.386,124.119 339.023,126.578 334.773 C 129.037 330.523,132.581 324.386,134.455 321.136 C 136.328 317.886,138.514 314.102,139.312 312.727 C 142.919 306.514,146.302 300.652,149.675 294.773 C 154.744 285.935,153.324 286.819,162.457 286.811 C 182.524 286.794,193.584 284.970,207.500 279.382 L 212.500 277.374 220.909 285.736 C 232.550 297.312,237.496 301.091,249.088 307.265 C 252.461 309.062,255.373 310.770,255.558 311.061 C 255.744 311.353,255.898 317.493,255.902 324.707 L 255.909 337.824 262.045 344.058 C 265.420 347.487,268.182 350.452,268.182 350.647 C 268.182 350.842,265.944 353.345,263.210 356.208 C 253.791 366.072,253.760 367.256,262.680 376.712 C 265.581 379.787,268.022 382.498,268.104 382.737 C 268.186 382.975,265.826 385.687,262.860 388.763 C 253.767 398.192,253.746 398.864,262.227 408.335 C 264.877 411.295,267.195 413.980,267.379 414.304 C 267.753 414.965,266.501 416.629,261.333 422.337 C 253.799 430.657,253.975 431.906,264.122 442.121 L 268.735 446.764 262.322 453.311 L 255.909 459.858 255.920 469.361 C 255.935 482.971,255.532 482.038,264.545 489.285 C 280.888 502.422,292.743 510.455,295.791 510.455 C 298.672 510.455,310.502 502.381,326.818 489.280 C 334.665 482.979,334.620 483.039,335.074 478.308 C 335.284 476.114,335.588 437.485,335.748 392.467 L 336.039 310.615 342.195 307.482 C 363.752 296.512,380.068 279.206,390.455 256.295 C 405.945 222.128,401.121 182.304,377.807 151.880 C 373.924 146.813,373.924 146.811,376.362 140.003 C 403.044 65.519,345.264 -7.618,266.136 0.481 M287.273 15.465 C 324.860 18.756,355.130 44.499,365.014 81.578 C 368.454 94.482,368.226 115.820,364.516 128.171 C 362.221 135.812,362.660 135.507,358.377 132.430 C 326.317 109.396,289.838 104.818,255.042 119.464 L 251.674 120.881 243.905 113.020 C 228.728 97.661,216.776 90.031,199.028 84.372 L 193.738 82.685 194.314 80.774 C 200.271 61.019,207.906 49.064,223.409 35.219 C 238.531 21.713,265.028 13.518,287.273 15.465 M176.020 95.666 C 195.361 96.595,215.651 106.588,232.762 123.612 C 237.493 128.319,237.443 128.619,230.994 134.159 C 194.643 165.389,182.350 211.917,199.548 253.182 C 203.777 263.329,203.754 263.261,203.094 263.896 C 202.041 264.907,196.911 266.814,190.077 268.735 L 183.409 270.610 164.860 270.873 L 146.310 271.136 145.424 272.273 C 144.110 273.958,131.485 295.150,115.905 321.818 C 113.514 325.911,94.683 358.472,90.537 365.682 C 88.668 368.932,86.486 372.716,85.688 374.091 C 84.890 375.466,82.640 379.352,80.689 382.727 C 78.738 386.102,75.296 392.034,73.040 395.909 C 70.785 399.784,66.712 406.841,63.988 411.591 C 61.264 416.341,58.895 420.369,58.723 420.543 C 58.261 421.007,32.941 424.165,30.988 424.003 C 29.035 423.840,27.612 421.803,24.735 415.055 C 23.816 412.900,22.150 408.989,21.032 406.364 C 15.462 393.281,17.028 390.377,31.917 386.182 C 45.746 382.285,46.983 380.548,44.091 369.091 C 41.756 359.840,41.730 359.888,50.196 357.735 C 61.316 354.907,62.529 353.002,60.179 342.045 C 59.482 338.795,58.900 335.338,58.887 334.362 L 58.864 332.588 65.633 330.399 C 72.831 328.072,74.750 327.061,76.241 324.814 C 78.053 322.081,77.991 320.675,75.664 311.708 C 73.827 304.633,73.496 305.017,84.247 301.766 C 88.088 300.605,89.592 299.905,91.065 298.596 L 92.955 296.916 92.890 292.435 C 92.838 288.802,92.528 286.922,91.250 282.500 C 90.383 279.500,89.416 276.023,89.100 274.773 L 88.525 272.500 92.528 265.682 C 97.122 257.858,101.633 249.131,102.270 246.836 C 102.843 244.772,101.570 241.947,97.383 235.990 C 82.588 214.944,77.253 193.860,80.715 170.127 C 87.010 126.972,126.906 93.016,168.636 95.294 C 170.011 95.370,173.334 95.537,176.020 95.666 M307.056 127.492 C 321.709 129.310,333.542 133.658,345.682 141.686 C 355.944 148.473,356.158 149.279,349.806 157.226 C 344.850 163.426,328.690 177.806,325.909 178.491 C 325.470 178.599,324.445 177.451,323.030 175.265 C 316.142 164.624,307.579 159.773,295.682 159.773 C 284.387 159.773,277.742 163.112,270.608 172.372 C 255.130 192.461,270.024 221.818,295.692 221.818 C 308.514 221.818,318.937 214.752,325.028 201.932 C 327.602 196.514,328.519 195.475,334.020 191.749 C 345.514 183.961,357.649 172.554,363.081 164.432 C 365.444 160.899,366.119 160.715,367.833 163.139 C 373.897 171.714,380.463 187.093,382.019 196.364 C 389.240 239.389,371.678 275.081,334.035 293.881 C 324.631 298.577,321.448 300.710,320.965 302.637 C 320.117 306.024,319.992 315.392,319.736 394.545 C 319.533 457.297,319.352 475.328,318.920 475.682 C 313.202 480.361,296.535 492.274,295.710 492.271 C 294.983 492.269,291.094 489.577,280.975 482.070 L 271.818 475.276 271.818 471.457 C 271.818 466.359,272.138 465.794,279.374 458.096 C 289.601 447.217,289.635 446.864,281.349 437.618 C 278.379 434.303,275.939 431.268,275.929 430.874 C 275.918 430.479,278.159 427.660,280.908 424.608 C 289.654 414.900,289.654 414.773,280.956 405.028 C 278.180 401.919,275.909 399.108,275.909 398.781 C 275.909 398.260,277.891 395.906,284.205 388.929 C 289.451 383.133,289.123 381.992,278.977 370.786 C 275.112 366.517,275.007 367.079,280.891 360.556 C 289.951 350.513,289.946 350.463,278.544 338.806 L 271.818 331.929 271.791 323.806 C 271.761 314.730,271.173 302.905,270.693 301.734 C 270.329 300.844,266.302 298.403,259.545 294.976 C 221.319 275.587,203.896 243.664,208.579 201.591 C 213.721 155.387,258.756 121.500,307.056 127.492 M301.364 175.510 C 309.084 177.212,313.600 187.450,310.779 196.858 C 306.912 209.755,286.302 210.179,281.160 197.467 C 275.574 183.655,286.153 172.158,301.364 175.510 " stroke="none" fill="#000000" fill-rule="evenodd"></path></g></svg>