<svg id="svg" xmlns="http://www.w3.org/2000/svg" xmlns:xlink="http://www.w3.org/1999/xlink" width="400" height="572.972972972973" viewBox="0, 0, 400,572.972972972973"><g id="svgg"><path id="path0" d="M251.894 105.824 C 103.305 224.104,101.352 226.836,164.865 227.527 L 210.811 228.028 137.833 295.095 C 53.989 372.148,49.656 382.211,104.772 371.872 L 144.679 364.385 123.691 395.968 C 48.325 509.380,17.421 551.351,9.280 551.351 C 4.176 551.351,0.000 556.216,0.000 562.162 C 0.000 578.876,19.602 574.973,40.726 554.054 C 51.233 543.649,127.305 479.189,209.775 410.811 L 359.720 286.486 310.469 281.081 L 261.217 275.676 329.679 216.216 L 398.141 156.757 345.091 153.492 L 292.041 150.227 337.234 88.627 C 362.091 54.747,386.381 25.405,391.214 23.423 C 402.260 18.893,402.821 -0.146,391.892 0.419 C 387.432 0.649,324.433 48.082,251.894 105.824 " stroke="none" fill="#000000" fill-rule="evenodd"></path></g></svg>