<svg id="svg" xmlns="http://www.w3.org/2000/svg" xmlns:xlink="http://www.w3.org/1999/xlink" width="400" height="511.2195121951219" viewBox="0, 0, 400,511.2195121951219"><g id="svgg"><path id="path0" d="M280.122 18.911 L 274.146 19.638 274.151 21.648 C 274.165 27.451,276.707 29.696,285.248 31.447 C 300.992 34.673,305.406 36.035,302.317 36.713 C 301.713 36.845,299.244 37.407,296.829 37.962 C 284.551 40.782,261.274 43.988,239.268 45.890 C 233.448 46.394,231.250 46.363,224.390 45.683 C 166.415 39.939,95.136 40.050,83.047 45.903 C 72.690 50.917,73.619 64.483,84.638 69.137 C 99.302 75.332,173.341 76.456,234.469 71.412 C 244.902 70.551,246.561 70.675,265.122 73.709 C 283.193 76.663,301.604 81.046,305.793 83.390 C 308.108 84.686,283.659 90.046,262.398 92.903 L 253.333 94.122 243.862 92.946 C 179.812 84.996,97.968 84.946,83.165 92.847 C 72.884 98.334,73.456 111.239,84.223 116.751 C 100.042 124.848,188.087 126.303,248.780 119.469 C 260.157 118.188,260.629 118.198,269.756 119.934 C 289.720 123.731,309.787 129.827,307.160 131.298 C 303.027 133.611,284.425 138.287,268.049 141.130 C 267.244 141.269,263.512 140.870,259.756 140.243 C 221.030 133.773,149.184 130.177,116.098 133.054 C 85.793 135.689,76.619 139.650,75.722 150.488 C 74.779 161.872,84.150 166.866,113.171 170.446 C 149.529 174.930,214.827 173.254,262.946 166.601 C 271.498 165.418,271.505 165.418,275.629 166.323 C 286.928 168.800,297.462 172.132,304.310 175.393 L 309.024 177.639 306.663 178.851 C 301.365 181.572,279.923 187.808,275.887 187.803 C 275.064 187.802,270.995 187.132,266.845 186.315 C 208.395 174.805,114.275 173.453,87.147 183.734 C 71.963 189.489,71.817 205.843,86.892 212.320 C 95.513 216.023,113.406 219.102,133.171 220.284 C 141.372 220.775,141.631 221.274,133.888 221.664 C 93.328 223.712,75.610 230.685,75.610 244.600 C 75.610 255.340,87.055 261.938,112.447 265.836 C 119.768 266.960,120.067 267.105,116.006 267.558 C 96.216 269.770,83.171 274.759,78.220 282.010 L 75.854 285.475 75.854 289.688 C 75.854 300.400,84.521 307.167,103.535 311.300 C 109.351 312.564,109.835 312.902,106.533 313.397 C 93.248 315.389,80.991 321.630,77.398 328.231 C 71.233 339.557,79.772 350.980,98.654 356.668 C 102.171 357.727,103.475 358.537,101.664 358.537 C 101.237 358.537,98.877 359.227,96.420 360.071 C 69.438 369.333,67.864 389.906,93.308 400.759 C 99.217 403.280,99.089 403.122,96.026 404.124 C 70.915 412.337,68.304 434.020,91.052 445.429 L 95.673 447.746 92.045 449.422 C 75.574 457.033,70.501 471.004,80.106 482.309 C 109.672 517.111,271.999 512.115,316.246 475.042 C 331.564 462.207,332.737 441.799,318.827 430.154 C 317.807 429.300,317.810 429.293,320.406 426.758 C 332.568 414.882,332.808 399.084,321.002 387.535 L 317.983 384.582 322.088 380.462 C 333.988 368.517,333.778 354.507,321.520 342.488 L 317.839 338.879 319.529 337.642 C 335.803 325.734,335.827 308.270,319.586 295.069 L 317.466 293.345 318.855 292.444 C 324.179 288.991,328.450 284.376,331.181 279.128 C 335.723 270.397,331.395 258.076,321.133 250.530 C 316.630 247.219,316.665 247.413,320.200 245.391 C 338.299 235.036,338.261 214.875,320.122 203.775 C 315.454 200.919,315.592 201.137,317.867 200.187 C 340.133 190.883,340.428 167.353,318.415 156.531 C 314.319 154.518,314.289 154.667,319.246 152.289 C 342.165 141.292,341.967 121.903,318.817 110.303 C 315.663 108.722,313.281 107.306,313.524 107.156 C 313.767 107.006,315.269 106.403,316.861 105.816 C 345.111 95.403,343.559 71.150,314.024 61.486 C 309.829 60.113,309.856 60.039,315.218 58.310 C 333.925 52.277,342.023 41.698,336.864 30.032 C 335.028 25.880,329.623 23.847,313.415 21.212 C 294.967 18.212,289.164 17.811,280.122 18.911 M284.818 213.733 C 294.649 216.649,304.774 220.861,307.753 223.274 L 308.921 224.220 306.534 225.680 C 303.296 227.660,297.990 229.787,290.991 231.910 C 282.670 234.434,282.673 234.434,274.390 232.516 C 253.943 227.781,226.485 223.991,200.747 222.354 C 190.906 221.727,188.960 220.996,197.101 220.983 C 213.171 220.957,252.678 217.066,271.220 213.683 C 275.378 212.924,278.973 212.279,279.208 212.249 C 279.443 212.220,281.967 212.887,284.818 213.733 M193.659 244.324 L 197.805 244.657 191.951 245.081 C 185.576 245.543,145.322 245.089,140.976 244.506 L 138.293 244.146 142.439 243.835 C 147.382 243.463,187.734 243.849,193.659 244.324 M293.902 261.908 C 304.318 266.078,309.230 269.375,307.642 271.130 C 305.655 273.326,290.331 280.000,287.277 280.000 C 286.771 280.000,284.542 279.475,282.324 278.833 C 271.648 275.742,249.506 271.478,232.335 269.206 C 227.717 268.595,223.988 268.045,224.049 267.984 C 224.109 267.923,227.669 267.518,231.958 267.084 C 249.779 265.282,267.196 262.700,278.049 260.252 C 284.797 258.730,286.376 258.895,293.902 261.908 M194.146 288.037 C 205.786 288.728,224.794 290.485,225.217 290.908 C 226.608 292.299,180.340 293.862,159.024 293.145 C 142.694 292.595,119.408 290.673,120.145 289.936 C 120.430 289.651,133.387 288.320,140.244 287.872 C 150.889 287.176,181.211 287.269,194.146 288.037 M293.547 306.567 C 299.606 309.122,305.742 312.880,307.691 315.228 C 309.362 317.242,292.611 326.882,289.915 325.457 C 286.010 323.394,257.157 316.413,246.098 314.856 C 242.302 314.322,241.978 313.826,245.176 313.448 C 256.865 312.064,274.903 308.721,284.634 306.134 C 287.049 305.492,289.141 304.947,289.283 304.922 C 289.425 304.898,291.344 305.638,293.547 306.567 M203.171 331.932 C 217.729 333.140,241.103 336.062,241.801 336.761 C 242.319 337.278,216.200 339.753,202.439 340.491 C 172.335 342.105,123.316 339.458,113.061 335.665 C 110.977 334.894,125.614 332.676,139.024 331.730 C 143.183 331.437,147.573 331.116,148.780 331.016 C 154.530 330.543,194.551 331.216,203.171 331.932 M295.712 352.247 C 301.357 355.097,307.317 359.738,307.317 361.284 C 307.317 362.400,301.714 366.864,297.794 368.871 L 293.865 370.883 289.737 369.337 C 283.328 366.936,271.768 363.594,262.993 361.605 C 253.923 359.549,253.900 359.643,263.902 357.812 C 271.233 356.470,283.928 353.401,289.024 351.739 C 292.747 350.524,292.221 350.485,295.712 352.247 M200.000 374.931 C 218.557 376.160,248.383 380.210,251.639 381.941 C 252.005 382.136,249.370 382.762,245.786 383.333 C 202.667 390.206,146.629 389.819,114.416 382.425 C 110.942 381.628,108.034 380.976,107.953 380.976 C 106.332 380.976,108.888 379.861,112.317 379.073 C 133.633 374.172,165.697 372.657,200.000 374.931 M296.244 396.904 C 300.547 399.129,306.341 404.523,306.341 406.305 C 306.341 407.788,304.055 410.125,299.850 412.940 L 295.963 415.542 293.713 414.650 C 292.476 414.159,289.796 413.092,287.757 412.279 C 283.709 410.665,274.819 407.846,268.293 406.107 C 263.575 404.851,263.473 404.940,271.927 402.928 C 278.652 401.327,290.265 397.930,292.839 396.810 C 294.773 395.969,294.415 395.959,296.244 396.904 M190.294 417.076 C 212.049 418.150,231.531 420.600,250.081 424.595 C 260.924 426.931,261.080 427.012,256.585 427.974 C 214.385 437.011,150.911 437.460,115.854 428.969 C 110.947 427.780,104.390 425.720,104.390 425.366 C 104.390 425.014,110.891 422.968,115.854 421.758 C 132.706 417.648,163.117 415.735,190.294 417.076 M298.829 442.886 C 309.319 450.728,306.641 456.068,287.985 464.505 C 245.253 483.831,141.631 487.499,104.265 471.008 L 101.729 469.889 103.670 468.907 C 108.186 466.621,118.673 463.964,131.951 461.743 C 150.496 458.640,152.841 458.463,168.281 458.998 C 182.175 459.480,201.800 459.073,214.766 458.034 C 224.058 457.290,244.824 459.614,260.504 463.153 L 266.051 464.405 272.777 462.164 C 280.297 459.658,280.204 459.725,279.755 457.067 C 279.191 453.726,277.696 452.073,274.264 450.994 C 270.260 449.735,270.188 449.801,277.927 447.626 C 281.616 446.590,287.159 444.791,290.244 443.628 C 296.987 441.088,296.483 441.131,298.829 442.886 " stroke="none" fill="#000000" fill-rule="evenodd"></path></g></svg>