<svg id="svg" xmlns="http://www.w3.org/2000/svg" xmlns:xlink="http://www.w3.org/1999/xlink" width="400" height="400" viewBox="0, 0, 400,400"><g id="svgg"><path id="path0" d="M143.530 6.862 C -75.045 77.333,-28.799 396.112,200.000 396.112 C 457.052 396.112,467.606 15.535,210.909 2.736 C 184.909 1.440,154.589 3.296,143.530 6.862 M252.862 69.438 C 370.206 118.468,370.206 281.532,252.862 330.562 C 183.153 359.688,104.199 328.104,71.928 258.182 C 18.925 143.341,136.412 20.782,252.862 69.438 M137.612 96.537 C 21.619 174.704,96.585 352.607,231.230 318.703 C 335.848 292.360,355.390 148.010,261.483 95.231 C 223.977 74.152,169.985 74.721,137.612 96.537 M196.364 122.858 C 196.364 160.441,179.363 167.337,151.802 140.931 C 129.931 119.978,130.668 111.704,155.290 101.770 C 188.244 88.473,196.364 92.642,196.364 122.858 M260.101 111.748 C 267.474 118.946,265.073 124.764,247.965 141.155 C 221.705 166.314,210.909 160.856,210.909 122.419 C 210.909 91.409,234.110 86.377,260.101 111.748 M153.085 185.024 C 133.679 208.406,92.051 199.745,97.316 173.420 C 105.559 132.203,115.883 127.071,140.677 151.866 C 159.122 170.311,161.040 175.438,153.085 185.024 M305.455 178.988 C 305.455 193.877,301.940 196.364,280.891 196.364 C 241.957 196.364,233.214 178.788,258.842 152.038 L 279.902 130.056 292.678 145.834 C 299.705 154.511,305.455 169.431,305.455 178.988 M224.000 176.000 C 235.218 187.218,235.218 212.782,224.000 224.000 C 204.098 243.902,167.273 226.608,167.273 197.361 C 167.273 174.220,207.189 159.189,224.000 176.000 M156.729 218.773 C 164.963 232.096,122.498 271.113,111.748 260.101 C 86.377 234.110,91.409 210.909,122.419 210.909 C 138.616 210.909,154.056 214.448,156.729 218.773 M305.455 224.649 C 305.455 232.206,299.705 245.489,292.678 254.166 L 279.902 269.944 259.157 248.290 C 233.837 221.862,239.005 210.909,276.793 210.909 C 300.046 210.909,305.455 213.502,305.455 224.649 M187.636 248.727 C 220.446 281.537,184.783 320.546,146.495 293.728 L 129.753 282.002 149.874 261.001 C 172.509 237.375,175.358 236.449,187.636 248.727 M250.126 261.001 L 270.247 282.002 253.505 293.728 C 224.237 314.228,210.909 309.174,210.909 277.576 C 210.909 233.731,220.227 229.793,250.126 261.001 " stroke="none" fill="#000000" fill-rule="evenodd"></path></g></svg>