<svg id="svg" xmlns="http://www.w3.org/2000/svg" xmlns:xlink="http://www.w3.org/1999/xlink" width="400" height="743.5897435897436" viewBox="0, 0, 400,743.5897435897436" version="1.1"><g id="svgg"><path id="path0" d="M143.590 10.650 C 118.645 21.918,80.814 55.388,85.130 62.372 C 86.590 64.734,71.760 66.667,52.174 66.667 C 19.985 66.667,15.769 67.881,8.282 79.307 C -3.834 97.798,-2.252 107.692,12.821 107.692 L 25.641 107.692 25.641 397.436 L 25.641 687.179 200.000 687.179 L 374.359 687.179 374.359 397.436 C 374.359 111.111,374.480 107.692,384.615 107.692 C 396.434 107.692,396.949 104.924,389.242 82.817 C 383.718 66.969,382.997 66.667,350.767 66.667 C 318.851 66.667,317.388 66.075,299.030 45.755 C 258.966 1.409,195.685 -12.883,143.590 10.650 M174.359 271.795 L 174.359 371.795 117.949 371.795 L 61.538 371.795 61.538 271.795 L 61.538 171.795 117.949 171.795 L 174.359 171.795 174.359 271.795 M338.462 271.795 L 338.462 371.795 279.487 371.795 L 220.513 371.795 220.513 271.795 L 220.513 171.795 279.487 171.795 L 338.462 171.795 338.462 271.795 M174.359 497.436 L 174.359 576.923 117.949 576.923 L 61.538 576.923 61.538 497.436 L 61.538 417.949 117.949 417.949 L 174.359 417.949 174.359 497.436 M338.462 497.436 L 338.462 576.923 279.487 576.923 L 220.513 576.923 220.513 497.436 L 220.513 417.949 279.487 417.949 L 338.462 417.949 338.462 497.436 M0.000 720.513 L 0.000 743.590 200.000 743.590 L 400.000 743.590 400.000 720.513 L 400.000 697.436 200.000 697.436 L 0.000 697.436 0.000 720.513 " stroke="none" fill="#000000" fill-rule="evenodd"></path></g></svg>